<svg width="300" height="241" xmlns="http://www.w3.org/2000/svg">
  <path fill="#005abb" d="M0 240.016h4.543V1.024H0z"/>
  <path d="M105.02 43.549c-.39.53-1.051.72-1.488.425-.425-.295-.46-.968-.07-1.5.39-.53 1.062-.72 1.487-.424.437.295.46.968.07 1.499m-2.797 4.273c-.39.53-1.062.72-1.487.424-.437-.283-.472-.968-.082-1.487.39-.53 1.05-.732 1.487-.437.437.307.473.968.082 1.5m-9.62-23.393c.343-1.004.969-2.975.969-2.975l1.074.401c-.319.118-.697.414-1.039.709.248.106.696.129.992-.06l-.437 1.04c-.095-.166-.401-.544-.708-.603-.225.839.318 1.145.72 1.346.66.33 1.085.378 1.274.082.202-.354-.224-.862-.779-.637-.059-.543.26-.838.638-.838.295 0 .53.27.613.625-.036-.897.366-1.581 1.216-1.841.319.861.059 1.44-.614 2.065.354-.129.756-.106.92.13.214.306.141.708-.365.967-.118-.566-.802-.613-.991-.247-.202.366.095.72.696 1.038.708.378 1.275.154 1.652-.436-.236-.07-.637-.025-1.015.201l.72-1.298c.037.188.154.52.46.755.107-.283.26-.79.037-1.25l1.558.861c-.531.048-.91.437-1.11.673.378.118.72.059.91-.023l-.803 1.25c.022-.424-.143-.778-.33-.932-.343.602-.26 1.18.424 1.594.602.342 1.062.413 1.287.07.235-.354-.143-.897-.709-.708-.024-.555.307-.827.685-.803.295.025.507.342.566.708.225-.873.626-1.38 1.546-1.558.202.85-.213 1.535-1.026 1.948.354-.107.708-.036.861.213.177.307.082.72-.436.944-.082-.579-.756-.685-.968-.33-.177.295.095.625.708 1.014.39.236.932.543 1.581-.059-.213-.236-.708-.295-.897-.295l.72-.885c-.024.342.213.708.425.85.107-.425.166-.897.118-1.216l.91.708s-1.465 1.5-2.196 2.278zm11.65 12.758c0-.154.048-.366.224-.52.177-.164.402-.187.567-.187.33.023.696.177.968.448.271.283.425.637.413.968-.023.14-.059.366-.224.52h-.023c-.177.165-.401.187-.543.187-.342 0-.708-.176-.98-.448-.271-.283-.424-.65-.413-.968m4.261 18.92c.07-.319.307-.638.637-.85.331-.2.72-.295 1.05-.225.155.036.367.118.497.307a.69.69 0 0 1 .095.567c-.06.307-.307.625-.626.838-.578.366-1.274.33-1.558-.082-.129-.188-.118-.413-.095-.555M88.225 27.604c-.023.318-.154.625-.366.802-.095.082-.247.188-.448.177-.402-.025-.708-.46-.708-.98v-.082c.022-.33.154-.625.354-.814a.694.694 0 0 1 .472-.166c.2.023.342.13.436.213.189.213.284.52.26.85m6.28-12.44c.33-.614 0-1.558 1.156-1.558.578 0 1.086.555 1.77.767-1.121.095-2.124.343-2.927.791m18.27 15.568c.768 2.054 2.314 2.785 3.482 2.266-2.62-.295-.495-4.639-3.87-4.639-.189 0-.379.025-.544.06-.578-.59-1.24-.827-2.195-.827-1.44 0-3.895 1.334-3.895 4.084 0 5.925 7.129 6.444 7.129 11.685 0 1.534-1.204 2.49-2.55 2.49-1.192 0-2.16-1.31-3.163-3.34-.484-.968-1.522-2.301-2.62-3.67.33.224.697.342 1.062.353a1.31 1.31 0 0 0 .992-.354c.247-.224.401-.554.413-.92v-.06c0-.46-.202-.943-.578-1.333-.39-.39-.897-.625-1.393-.637a1.336 1.336 0 0 0-1.417 1.274v.06c0 .201.048.4.118.601-1.534-1.935-2.962-3.835-2.962-4.874 0-.92.66-1.723 1.475-2.691.037.023.272.154.272.154l.224-.236c.283-.307.873-.933 2.113-2.207l.07-.082-.023.023.295-.307-.767-.59a8.78 8.78 0 0 0 .52-1.452c.235.944.743 1.558 1.44 1.357-.461-.98.471-2.301-.141-4.709.578.933 1.416 1.417 2.03 1.251-1.582-1.345.472-3.234-1.594-6.16.673.224 1.122.094 1.417-.225-1.877-.26-1.015-2.573-4.308-3.4.814-.142 1.298-.601 1.18-1.014-.873.602-1.64-1.133-4.497-1.086-.165-1.027-1.157-2.113-2.278-2.632.213.79.023 1.51-.202 2.112l-9.3-8.816c-.272-.248-.425-.307-.496-.213-.07.095-.07.248.107.437l7.978 9.654c-.602.213-1.192.449-1.806.673-.39.13-.696.52-.696.991-1.475.72-2.774 1.594-3.423 2.16-.495.437-.885.543-.448 1.511.165.366-.354 1.286.802.614.767-.437 2.479-1.358 2.738-.78.13.296-.72.697-1.298.91-.59.213-1.216.649-1.121.861.084.224.543-.023.578.224.037.248.225.484.449.484.236 0 .53-.472.72-.318.188.154-.096 1.215-.272 1.475.897-.106 1.476-.944 1.511-1.593.023-.65.202-.803.33-.897.141-.082.307.696.118 1.168.485-.095.98-.708.91-1.83.247-.187.483-.318.672-.318.307 0 .909.803 1.77.803 1.57 0 2.455-1.24 2.55-1.818.07-.46.036-.92-.224-1.263.566.437.743 1.121.743 1.64 0 2.16-3.954 3.176-5.583 4.675a2.459 2.459 0 0 0-.176.165l-1.853-.696-.13.39c0 .024-.024.094-.106.342-.188.613-.602 1.888-.85 2.631l-.095.296.165.095c-1.109 1.416-1.994 2.998-2.195 4.626a18.483 18.483 0 0 0-1.345-1.204 2.13 2.13 0 0 0 .095-.484 1.772 1.772 0 0 0-.425-1.274 1.271 1.271 0 0 0-.85-.413 1.234 1.234 0 0 0-.909.33c-.047.048-.106.095-.165.166-.059-.06-.13-.107-.188-.154-.614-.46-1.381-.992-1.841-1.488-.188-.213-.39-.318-.803-.318-.154 0-.555-.025-.826-.025-.272 0-.437.213-.744.484a73.92 73.92 0 0 1-1.062.79c.225.237.46.46.685.697.106.129.224.271.342.401.13-.095.236-.177.33-.236.189-.154.45-.188.685-.188.236 0 .567.166.803.508.165.247 1.676 2.148 2.915 3.47-.13.048-.271.095-.39.14-.53.225-1.734.177-2.266.14-.543-.047-.637-.176-1.003.367a6.678 6.678 0 0 1-.496.673c-.176.213-.318.448.06 1.062.554.897 1.911 3.257 2.36 4.32.46 1.062.991 1.239 1.853 1.581.873.342 2.349 1.157 2.526 1.346l.059-.815c-.26-.248-1.086-.543-1.405-.649-.307-.118-.39-.248-.023-.248.366 0 1.417.366 2.148.65-.224-.803-1.015-1.665-1.487-2.16-.625-.177-1.251-.177-1.51.023.036.165-.107.377-.355.377-.247 0-.413-.2-.33-.413.082-.248.448-.33.366-.779-.07-.46-.661-.543-1.039-.578-.531-.732-1.145-1.818-1.416-2.255-.283-.448-.118-.696.07-.838.46-.365 1.405.189 3.293.307.65.036 1.487.082 2.337.118.26 2.113 1.133 4.131 4.19 4.863 1.487.366 3.033 1.416 3.552 2.797-6.102-.106-7.058 2.196-7.058 4.355 0 2.467 2.149 2.337 2.149 4.179 0 1.605-5.123 2.277-6.68 2.49-1.311.188-2.055.472-2.692 1.086-.625.614-1.263 1.192-2.407 2.301 0 0 .483.107.967.082l.874-1.086c.247-.365.425-.66.602-.637.165.036.047.307-.143.697l-.72 1.156c3.01.202 3.21-.873 3.21-1.322 0-.448-.743-.755-.318-1.027.436-.271.802-.082 1.145.307.342.39.46.72 1.298.413 0 0 6.562-2.62 7.388-2.986.744-.33.531-.637.082-1.003-.484-.39-.567-1.015-.567-1.676 0-1.924 1.193-2.514 3.329-2.478a6.28 6.28 0 0 0-.07.92c0 2.998 4.685 5.925 5.96 5.925.555 0 1.322-.413 1.37 1.393.035 1.322.318 2.266.07 3.8-.249 1.523-.709 1.759-1.653 2.408-.956.65-1.853 2.68-2.266 3.104.425.271.885.295 1.239-.684.295-.815.625-1.405.991-1.594-.366.897-.637 2.22-.814 2.62 1.192.202 3.128-.861 3.128-1.676 0-.814-.661-.743-.661-1.286 0-.248.307-.52.66-.52.485 0 .85.378.886.543.531-.27.861-.778.85-1.97-.023-.46-.037-.945-.06-1.44.037.07.071.129.119.188.224.342.613.542 1.074.578.436.048.908-.082 1.31-.343.472-.294.802-.731.897-1.215.025-.095.036-.188.036-.283 0-.26-.084-.508-.224-.709-.188-.283-.508-.483-.874-.566-.495-.095-1.038.025-1.51.319a1.997 1.997 0 0 0-.874 1.11c-.095-1.63-.224-3.164-.165-3.778.059-.92.095-1.321-.213-1.463-.331-.14-.673.377-1.133.377-.46 0-1.83-1.227-1.83-2.525 0-1.287 1.44-2.951 1.37-4.721-.026-.555.342-.85.566-.343.283.602.684 1.429 1.31 2.09-.39 2.23 2.148 4.402 4.237 2.785-1.027.154-1.735-.732-2.195-1.629.176.036.366.048.566.048h.307c.732.862 3.057.79 3.659-1.38-.413.46-1.24.802-1.853.731.885-.661 1.334-1.735 1.334-2.892 0-5.641-7.094-6.302-7.094-11.436 0-1.9 1.735-3.14 2.927-3.14.46 0 .815.14 1.098.354-.448.437-.708 1.121-.661 1.96.188 4.06 7.058 3.847 7.14 5.794.768-2.938-4.343-2.03-4.532-5.983m-24.49 4.581c-.626-.283-.945-.885-.732-1.322a.75.75 0 0 1 .46-.365c.318-.107.708-.07 1.062.095.354.165.637.448.744.743a.669.669 0 0 1-.023.578.764.764 0 0 1-.449.366c-.318.107-.708.07-1.074-.095m-.484-2.242a1.362 1.362 0 0 0-.79.673c-.366.731.095 1.675 1.003 2.1.52.237 1.074.284 1.546.118.366-.129.65-.366.803-.673.154-.295.165-.66.036-1.015-.165-.46-.555-.85-1.05-1.086-.508-.235-1.063-.283-1.547-.117m12.568 21.752zm.023-.59a.747.747 0 0 1-.531-.236c-.236-.236-.366-.602-.366-.98.023-.39.154-.731.401-.956.118-.117.295-.247.543-.236.508.023.909.567.897 1.228-.023.378-.154.744-.401.968a.77.77 0 0 1-.543.213m-.92-2.609a1.973 1.973 0 0 0-.579 1.381v.048c0 .52.188 1.015.531 1.346.26.271.602.425.956.425.354.023.696-.13.98-.378.354-.342.566-.85.59-1.381 0-.472-.143-.909-.401-1.251-.284-.354-.673-.567-1.098-.579-.354 0-.708.143-.98.39M88.98 24.582c0-.295.189-.637.508-.873.271-.213.614-.307.909-.272.129.023.307.07.436.236a.57.57 0 0 1 .118.472c-.036.272-.224.567-.496.767-.46.355-1.085.366-1.345.048a.602.602 0 0 1-.13-.377m.13-1.346c-.732.555-.956 1.487-.472 2.078.46.59 1.452.625 2.195.07.402-.307.661-.732.72-1.169a1.166 1.166 0 0 0-.236-.909 1.236 1.236 0 0 0-.85-.448c-.448-.07-.944.082-1.357.377m14.187 34.275c-.684-.117-1.157-.613-1.062-1.085a.702.702 0 0 1 .33-.473c.283-.188.673-.259 1.05-.188.626.107 1.087.543 1.087.968 0 .036-.023.082-.023.118-.095.484-.72.78-1.393.661m-1.074-2.042c-.319.213-.53.508-.59.85-.082.401.048.803.366 1.145.295.319.72.543 1.192.625.472.082.944.023 1.334-.176.425-.213.684-.555.767-.956.14-.803-.555-1.594-1.558-1.77-.555-.096-1.098 0-1.511.282m9.489-2.125c0-.932.802-1.7 1.782-1.7.968 0 1.759.768 1.759 1.7 0 .944-.791 1.712-1.76 1.712-.979 0-1.781-.768-1.781-1.712m-.602 0c0 1.275 1.062 2.302 2.384 2.302 1.31 0 2.372-1.027 2.372-2.302 0-1.263-1.062-2.29-2.372-2.29-1.322 0-2.384 1.027-2.384 2.29M46.798 13.393c-.767.578-1.782.048-2.255-.708 1.063-.425 2.29-.897 3.116-1.393-.755 1.133-.236 1.641-.861 2.101m-.166 7.73c-.991.414-1.758-.424-1.959-1.002-.188-.567-.342-1.05-.107-1.263.425-.413.555-.732.296-1.24-.296-.59-.945-.307-1.63-.142.32-.567.343-.968-.106-.909-.519.048-.53.873-.826.779-.283-.095-.118-.567-.118-.826 0-.342.225-.472.59-.626l2.88-1.062c.366-.129.626-.188.885.06.177.176.638.412.496.672-.14.271-.743-.319-1.156 0-.355.26-.048.531.59.708-.614.354-1.287.59-1.075 1.204.189.543.508.684 1.11.684.33 0 .555.46.826.992.283.543.366 1.534-.696 1.971m-5.465-5.595c-.779.07-.755-.637-2.112-.967.955-.177 2.183-.65 3.245-1.039.202.862-.165 1.924-1.133 2.006M57.16 40.22c.213-.567-.862-1.216-.992-2.03-.118-.815-.022-1.594-.99-2.692-.945-1.062-4.25-4.473-5.242-5.559.248-.025.838-.154 1.452.402.354.318 1.05.968 1.712 1.593.873-2.148 1.959-3.753 3.505-5.429a9.82 9.82 0 0 1 .602-.626c-.566.166-1.44.296-1.96.626-.035-.944.048-1.7-.625-2.29.26-1.31.037-2.891-2.998-4.839 1.546.366 2.467 1.723 3.66.673-1.075-.025-1.099-2.266-4.946-4.131 1.464-.036 2.62 2.266 4.32.956-1.606-.188-2.137-2.939-5.028-3.789 1.003.107 2.042.59 2.903-.543-1.003.225-1.605-.66-2.679-.743.413-1.204.307-1.948-.118-2.844-.755.046-1.534.259-2.089.708-.082-.661-.803-.708-1.44-.661.036.295.177.708-.154.767-.52.095-2.23.543-3.564 1.038-1.334.496-2.845 1.417-3.281 1.7-.272.188-.508-.236-.661-.425-.472.378-.933.873-.59 1.381-.744.06-1.558.248-2.255.779 0 .826.72 1.629 1.782 2.077-1.794 1.712-.176 3.305-1.747 4.792 2.208.082 1.83-2.892 2.951-3.305-.118 2.09-1.333 2.467-1.333 4.721 0 1.204.743 2.503.081 3.305 1.853-.496 1.37-4.438 2.514-5.63.2.673.082 1.334-.154 2.007-.649 1.84.07 4.367-.932 5.181 1.876-.177 2.113-3.104 3.659-4.178-1.334 2.632-2.703 8.238-4.698 11.047-3.222 4.19-5.11 9.3-8.061 9.3-1.298 0-2.278-.766-2.278-2.348 0-4.768 8.462-8.05 8.462-13.125 0-2.254-1.911-3.127-3.104-3.127-.802 0-1.782.39-2.596 1.038-.342-.14-.697-.224-.992-.224-2.997 0-2.195 5.205-4.803 5.146 1.026.566 2.809-.531 3.86-1.983-.438 3.376-5.454 2.479-5.076 6.515.708-3.163 8.71-2.703 8.71-7.495 0-.554-.283-1.003-.684-1.357.602-.378 1.168-.507 1.688-.507.956 0 1.83.684 1.83 2.041 0 4.261-8.416 7.85-8.416 13.078 0 .873.271 1.605.696 2.183-.59.248-1.192.13-1.711-.436-.037 1.333 1.947 2.183 3.198 1.522.283.095.579.14.874.166-.378 1.003-1.665 1.298-2.337 1.25 2.065 1.57 5.665-.495 5.464-2.265 1.641-1.275 2.68-3.459 3.86-4.887-.07.33-.13.661-.188.98-1.204 2.124-2.337 4.025-2.644 6.81-.271 2.337-1.487 4.438-3.187 4.438-.377 0-.991-.46-1.274-.224-.531.424-.025.897-.025 1.333 0 .661-1.334 1.322-1.334 3.376 0 .92.555 2.03.342 2.644.543-.272 1.263-1.145 1.57-2.278.579 2.703-1.204 2.585.084 4.992.154-.802.98-1.12 1.487-.802.496.33.26.566-.106.932-.378.354-.72 2.16.98 2.042-.32-.202-.343-.673.507-.838 1.168-.236 1.51.283 2.761.283.768 0 .98-.968 1.582-.968.614 0 .614.449.401.791.98-.26 1.169-.767 1.169-1.298 0-.543-.449-.873-.107-1.086.342-.202 1.487.025 1.027.92.59-.094.909-.507.909-1.203 0-.685-.814-1.098-1.594-.968-.129-.437-.79-.673-1.404-.673-1.38 0-1.169 1.05-2.113 1.05-1.51 0-2.986-1.9-2.986-5.098 0-1.723 1.912-2.16 3.27-2.727 1.357-.554 3.73-1.959 5.146-4.272 1.12-1.794 1.144-3.777 1.003-6.114 1.912 1.062 2.136 2.573 2.136 3.682 0 1.429-.767 2.019-1.38 2.278-.508.225-.685.13-.733.425-.07.366.188.579.402.697.696.342.543.967.743 1.664.188.696.826 1.782 1.9 2.573.107-.425.082-1.11.023-2.007 1.475.697.295 3.541 3.151 3.541-.53-.283-.389-1.038-.095-1.133.307-.118.685.177 1.24.92.554.744.401.685 1.746.685 1.346 0 .744-.448 1.452-.448.72 0 .661.79.283 1.38 1.204-.353 1.558-1.239 1.157-2.136 1.062-.566 1.617.225 1.77.78 1.05-1.004 0-2.231-.814-2.302.025-.378-.33-.767-.767-.803-.437-.025-.874-.048-1.346-.025-.496.025-.767.708-1.345.708-1.794 0-5.323-3.116-5.323-4.473 0-1.345 3.375-2.172 3.375-4.26 0-2.739-2.785-3.671-5.134-5.43.838-.909 3.281-1.121 4.662-.46.154-.767.661-.578.85-1.9.508 1.156-.023 2.16.496 2.643.39-.554 1.404-.472 1.345-1.912.307.91-.39 2.278.307 2.88.118-.744.579-.885.862-.885.295 0 .543.202.543.637 0 1.098-1.405.59-1.405 1.818 0 .52.685.696.685 1.039 0 .33-.555.85-1.24.413.225.483.673.897 1.263.897.614 0 1.287-.472 1.535-1.098.318.79.07 1.664-.508 1.782.614.295 2.077.023 1.912-1.794.826.13 1.263.673.767 1.629.685-.154 1.299-.472 1.299-1.18 0-.531-.602-.697-.33-1.393M45.063 6.347c.213.319.295.484.307.732-.166-.06-.354-.225-.567-.496l.107 1.24c.154-.225.283-.378.46-.45-.048.803-.378 1.146-.661 1.193-.342.07-.626-.154-.661-.413-.07-.354.248-.59.578-.26.06-.743-.554-.732-.826-.425.319-.708.188-1.192-.472-1.57-.413.673-.236 1.11.283 1.618-.507-.248-.968.165-.507.72.095-.473.519-.366.625.022.082.33-.248.744-.79.91-.791.224-1.04-.26-1.24-.673.165-.107.578-.07 1.027.213l-.378-1.216c-.176.425-.436.602-.755.732-.025-.354.248-1.063.248-1.063l-1.523.602s.697.319.944.602c-.318.106-.625.165-1.074-.025l.602 1.121c.118-.507.39-.802.59-.838.155.425.33.944-.4 1.31-.508.26-1.051.177-1.216-.117-.213-.33.024-.709.436-.425-.07-.708-.708-.697-.885-.177 0-.72-.188-1.145-.98-1.346-.188.709.07 1.145.815 1.44-.425-.048-.874.366-.295.862 0-.46.389-.508.602-.202.154.213.129.543-.177.732-.236.154-.72.14-1.334-.401.177-.07.378-.048.65 0l-.815-.956c.047.342.025.59-.048.743-.177-.188-.224-.354-.307-.731l-.625.543c.59.342 1.263.873 2.089 1.97.861-.519 2.407-1.239 3.364-1.616.956-.378 2.584-.897 3.576-1.11-.202-1.333-.107-2.171.059-2.82zm-6.385-1.653.448.933.555-.65c.025 0 .047.024.07.026.048.307.059.85.059 1.156 0 .366.319.673.708.673.39 0 .708-.307.708-.673a.686.686 0 0 0-.377-.602 5.701 5.701 0 0 1-.78-.696c.023-.036.026-.059.037-.095l.932.082-.366-.956-.696.578c-.025-.023-.025-.023-.036-.025l-.048-.98-.98.343.65.732a.137.137 0 0 0-.036.084zm3.517.732a.526.526 0 0 0 0-.755.577.577 0 0 0-.78 0 .526.526 0 0 0 0 .755.577.577 0 0 0 .78 0m1.251-.897a.526.526 0 0 0 0-.755.592.592 0 0 0-.79 0 .526.526 0 0 0 0 .755.57.57 0 0 0 .79 0m1.463.225a.513.513 0 0 0 0-.744.555.555 0 0 0-.778 0 .504.504 0 0 0 0 .744.555.555 0 0 0 .778 0m.119 1.144a.555.555 0 0 0 .778-.023.512.512 0 0 0 0-.743.578.578 0 0 0-.778-.023.54.54 0 0 0 0 .767M38.76 6.877a.542.542 0 0 0 .555-.53.542.542 0 0 0-.555-.532.54.54 0 0 0-.543.531.54.54 0 0 0 .543.531m-1.463.095a.542.542 0 0 0 .554-.53.552.552 0 0 0-.554-.544.541.541 0 0 0-.543.543c0 .295.236.531.543.531m-.307.626a.542.542 0 0 0-.555-.531.542.542 0 0 0-.555.531c0 .295.248.531.555.531a.542.542 0 0 0 .555-.53m.189 1.415a.55.55 0 0 0-.555-.53.539.539 0 0 0-.543.53c0 .295.236.532.543.532a.542.542 0 0 0 .555-.532m34.794 38.772c.025-.036.036-.07.059-.07.036 0 .07-.023.081-.048.025-.048-.024-.07-.07-.095.048-.025.07-.036.048-.059-.025-.036-.082.023-.082 0-.023-.036.025-.048.036-.059.025-.025.037-.023.07 0l.202.095c.025.023.037.025.037.048 0 .025.022.06-.023.07-.025 0-.025-.059-.06-.07-.024 0-.024.025 0 .07-.058-.023-.094-.036-.117.023-.025.036-.025.06.023.095.022.025 0 .06-.023.095-.025.048-.082.118-.154.082-.07-.048-.059-.118-.036-.165m.236-.496c-.037.048-.107.095-.166.048-.047-.048.023-.07-.059-.165.06.035.188.106.225.117m.165.07c.025.025.165.082.248.107-.118.023-.095.059-.165.059s-.107-.095-.082-.166m1.64-.07c.025.048.07.095.166.118.873.236 1.877-.401 2.42-.26-.697-.235-1.134.178-1.795.037.39 0 .791-.07.815-.166-.295.189-1.157-.14-1.523.07a.322.322 0 0 0-.059.07c-.271.06-.507.202-.507.39 0 .555 2.254.118 2.254.307 0 .154-.436.295-1.026.295-.46 0-1.228-.295-2.208-.059v-.023c.07-.154.272-.39.188-.496.082-.036.13-.095.13-.154a.324.324 0 0 0-.154-.082c.024-.036-.023-.07-.037-.106-.022 0-.036-.095-.047-.107a.713.713 0 0 0-.202-.129c-.082-.036-.154-.036-.188-.048-.025-.023-.107.023-.118.023-.048 0-.095 0-.106.048a.474.474 0 0 0-.141-.059c-.048.07-.059.13-.025.224-.081 0-.165.202-.236.166.036.059.06.082.07.082-.058.118-.081.248-.165.26.036.035.059.058.084.07-.036.176-.06.389-.036.53-.14-.129-.343-.448-.484-.53-.13-.07-.13-.13-.13-.26 0-.107.048-.2.048-.307 0-.023-.025-.07-.036-.095-.025-.07-.118-.118-.177-.107.036.025.07.048.082.107l-.06.059c-.024.025-.036.07.023.106v.073c-.022.025-.022.023-.025 0-.024-.07-.058-.188-.129-.188h-.059c.023-.023.023-.023.023-.025 0-.082-.095-.129-.2-.048.026 0 .071.023.082.036-.022.025-.025.07-.025.082 0 .082.06.118.154.118.023 0 .025 0 .025.023s.023.025.023.036c0 .025 0 .025-.023.023-.154-.059-.213.023-.224.06 0 .022 0 .047.023.07-.06.024-.07.094.036.165 0-.036-.023-.082.025-.095.023 0 .023 0 .025-.023a.203.203 0 0 0 .047.036c0 .023.025 0 .082-.025.023 0 .023-.023.025 0 .023 0 .036.023.047.025.023.023.023.025 0 .025-.095.095-.07.188.048.213.025 0 .025.023.025.025-.023.176-.248.142-.236-.036-.14.201.106.354.283.26.023-.024.023-.024.023 0 .023.035.025.058.07.07-.023-.024 0-.049.036-.049.023 0 .023.023.023.025 0 .048.023.107.082.118-.023-.048 0-.07.025-.07.036 0 0 .271.259.413.048.154.177.225.319.225.036.106.106.199.081.199-.036 0-.342-.036-.436.023a.805.805 0 0 1-.284.095l-.022.025c0-.023 0-.023.022-.025-.081.023-.176.023-.213-.048-.036-.048-.024-.082-.058-.143-.025-.048-.07-.082-.096-.082h-.081c-.048-.048-.154-.059-.202-.025.048.023.082.023.118.07-.023.025-.025.06-.025.06-.036.047-.023.106.165.165.025.023.037.025.025.025-.036.023-.07.025-.106-.023-.082-.048-.082-.13-.177-.082-.023 0-.036.023-.059.025h-.025c-.081-.023-.213.095-.154.188.023-.025.048-.07.107-.082 0 .023.025.048.025.048.022.095.047.177.248.048.024-.023.024 0 .022.023-.047.082-.177.154-.07.224.023 0 .025.023.048.025-.023.023-.023.025-.023.025-.023.107.106.188.165.177-.025-.025-.07-.082-.059-.154.025 0 .048.023.06.023.094-.036.047-.154.094-.188.025 0 .025 0 .025.023.023.048.037.154.154.14.107 0 .155-.095.14-.154 0 0 0-.023.024 0 .036.023.07.06.059.107.022 0 .058-.036.081-.07.025.048.025.118-.047.177.036 0 .154-.06.188-.177.022.025.025.036.036.059v-.023c.048.025.118.025.236 0 .023-.023.023 0 .023.023-.023.036-.023.082.022.106 0 0 .025-.048.048-.048.025 0-.023.095.059.166.025-.272.177-.166.366-.283.025 0 .025 0 .025.025-.025.025-.048.059-.095.082.081 0 .283-.082.283-.189 0-.036.129-.154.165-.472h.07c.236-.025.343-.188.59-.201-.059.07-.081.224-.07.33 0 .129.166.272.213.307.023.023 0 .025-.023.025-.07 0-.154.025-.176.048-.188.118-.188-.283-.39-.213-.025.023-.059.036-.059.048-.095-.023-.2.095-.176.176a.18.18 0 0 1 .129-.082v.048c0 .036 0 .06.07.06.048 0 .048-.026.082-.026.022 0 .024.023.024.036 0 .07-.26-.048-.201.166 0 0 .025.048.025.059 0 .059.047.129.165.082-.025-.023-.059-.036-.059-.07h.06s.024 0 .024-.025c0-.023 0-.023.023-.023.022 0 .025.023.025.023 0 .023-.025.025-.025.048s.025.059.025.07c-.023.07.106.14.213.07-.025 0-.096-.023-.107-.048a.106.106 0 0 1 .059-.025c.025-.025.025-.048.025-.07 0-.025.023-.025.023-.025h.058c.025-.023.037 0 .037.023.025.048.095.095.165.059.13-.048.025-.154.13-.188h.083c.107.036.188.048.224 0 .025-.048.023-.236-.106-.307-.059-.036.106-.449-.224-.65.154.049.649.107.732 0 .154.026.318.13.342.155.025.036.036.059-.023.082-.13.082-.106.129-.188.154h-.023c-.036-.036-.081-.107-.129-.13-.047-.024-.095 0-.106 0-.07-.022-.166.024-.213.096a.234.234 0 0 1 .154-.023v.036c-.023.025 0 .036.025.059l.022.023c0 .023 0 .023-.022.023-.07-.023-.225-.023-.188.07 0 0 .022.036.022.059-.047.036-.059.118-.025.154.023-.025.025-.047.096-.07l.036.036c.036.047.118-.07.201-.036 0 0 .023 0 0 .023-.07.036-.154.082-.117.143 0 .023.022.036.024.048-.024.048 0 .129.096.165-.023-.025-.025-.07-.023-.107.025 0 .07 0 .082-.023.154-.07.047-.165.106-.213.059-.048.118.095.236-.023.025-.023.048-.059.025-.106 0-.023 0-.023.023-.023.024.025.058.059.106.036-.084-.07.023-.106.048-.165.022-.023.025-.023.025-.023.047.023.106 0 .165-.07-.07.023-.236-.084-.13-.13.144-.048.178-.129.107-.213-.117-.14-.366-.154-.366-.33h.225c.767 0 1.24-.202 1.227-.437-.036-.495-2.301.048-2.301-.318 0-.107.14-.188.318-.248m-1.348-2.909c-.07 0-.107-.106-.096-.165.037.025.189.082.272.095-.118.036-.096.082-.177.07m-.118.154c-.023 0-.023-.06-.059-.07-.036-.023-.025.025-.023.07-.047-.023-.095-.036-.117.023-.025.048-.023.059.022.106.025.023 0 .048-.022.107-.025.036-.084.106-.154.07-.082-.036-.07-.13-.048-.166.025-.048.048-.084.07-.084.048.023.07-.023.082-.048.025-.059-.025-.082-.07-.106.047-.023.07-.036.047-.06-.036-.024-.081.024-.095 0 0-.024.025-.047.048-.058.022-.025.036-.025.07 0l.213.095c.025.025.047.025.047.059 0 .025 0 .059-.025.07m-.129-.402c-.047.06-.118.107-.176.048-.048-.048 0-.07-.06-.176a.895.895 0 0 0 .237.129m2.219.048c.024.048.07.082.165.106.885.248 1.888-.389 2.42-.247-.697-.236-1.134.176-1.795.036.39 0 .791-.07.815-.177-.295.188-1.157-.13-1.511.095-.025.023-.048.025-.059.036-.484-.023-.873-.023-.873.295 0 .66 1.817.271 2.396.271.566 0 .507.06.507.166 0 .154-.649.202-.98.202-.495 0-1.994-.26-2.903-.082.082-.13.236-.33.154-.437.084-.025.143-.082.143-.166a.522.522 0 0 0-.177-.07c.037-.036 0-.082-.036-.117 0 0-.025-.095-.048-.107a.835.835 0 0 0-.201-.13c-.107-.058-.166-.058-.2-.058-.025 0-.118.025-.129.023-.047 0-.106 0-.106.059a.225.225 0 0 0-.154-.07c-.048.07-.048.129-.037.236-.07 0-.165.213-.236.188.025.048.048.07.07.082-.059.118-.095.248-.165.26a.203.203 0 0 0 .07.07.637.637 0 0 0-.047.247l-.082-.025h-.036c-.107-.023-.166 0-.354-.095-.141-.082-.141-.154-.141-.283 0-.106.059-.213.059-.319 0-.023-.025-.07-.036-.106-.037-.07-.13-.13-.188-.107.025.023.07.048.07.107-.025.025-.048.059-.048.059-.025.036-.036.082 0 .118.023.023.023.023.023.025 0 .023-.023.025-.023.059 0 .023-.022 0-.022 0-.037-.082-.07-.202-.155-.213h-.047v-.023c0-.082-.095-.154-.2-.06.025.024.07.024.082.037a.194.194 0 0 0-.025.095c-.023.082.059.118.166.118.022 0 .022 0 .024.023 0 .023 0 .025.023.036 0 .025-.023.025-.025.023-.154-.06-.213.023-.213.07 0 .023-.022.036 0 .059-.047.036-.07.118.025.176 0-.025 0-.082.036-.095h.025c.023.023.048.025.048.036.023.023.036 0 .082-.036.022 0 .024-.023.036 0 .023.023.036.025.059.036.022.023 0 .023 0 .025-.107.095-.095.189.047.213.023 0 .025.025.025.036-.022.177-.271.155-.26-.036-.142.213.107.366.296.26.022 0 .024 0 .024.023.023.036.037.059.07.07 0-.023.023-.036.037-.036.023 0 .023 0 .023.023 0 .048.025.106.095.13-.023-.049 0-.083.025-.083.036 0 .036-.082.271.048.023.036.036.06.084.082l.177-.025c-.037.118.022.319-.023.319-.048 0-.307-.036-.401.023-.13.07-.437.176-.531.059-.037-.048-.025-.095-.06-.154-.035-.048-.07-.082-.106-.082h-.07c-.048-.048-.165-.06-.213-.025.036 0 .084.023.118.07a.129.129 0 0 0-.036.07c-.025.036-.023.095.188.165.022 0 .025.025.022.036-.036.023-.07.023-.106-.023-.082-.07-.095-.143-.188-.095-.023 0-.037.023-.06.025h-.035c-.084-.023-.213.095-.155.188.023-.025.048-.07.107-.082a.086.086 0 0 1 .025.06c.025.106.059.176.271.035.025-.023.025.023.025.025-.059.084-.188.166-.082.236 0 0 .023.023.048.036-.023 0-.023 0-.023.023-.025.118.107.2.177.188a.171.171 0 0 1-.07-.165.105.105 0 0 0 .059.025c.106-.048.047-.165.118-.202.022-.023.024 0 .024.023 0 .048.025.154.141.14.118-.022.177-.106.154-.153 0-.023.023-.025.025-.023.036.023.07.059.059.129.023-.025.059-.048.081-.095.025.059.025.13-.047.2.047-.024.165-.07.188-.2.025.025.036.048.048.07.022 0 .022 0 .022-.023.036.023.118.025.236 0 .023 0 .023 0 .023.023-.023.048-.023.095.023.118 0-.023.036-.07.058-.07.025 0-.022.117.06.188.024-.295.27-.213.46-.342.024-.023.024-.023.024.023-.024.036-.036.07-.095.095.213.129.425-.14.484-.295.025-.023.048-.036.059-.06.023.026.023.06-.036.096.188 0 .176-.14.248-.14.601.047.14-.485 1.097-.32.07.023.188-.048.236-.106-.07.118-.07.378.06.401.07.023.187.048.235.095.023.023 0 .025-.023.025-.07 0-.165.025-.188.048-.2.118-.213-.295-.425-.213-.022 0-.047.025-.059.036-.083 0-.201.095-.188.177.037-.025.082-.06.154-.07 0 .025 0 .036-.022.048 0 .025.022.07.081.07.048 0 .06-.025.082-.025.023 0 .036.023.036.025 0 .07-.271-.048-.224.165 0 .023.025.06.036.07 0 .07.048.14.166.095-.023-.023-.06-.048-.048-.07h.048c.022 0 .024-.023.024-.036 0-.023.023-.023.023-.023.023 0 .036.023.036.025 0 .023-.024.025-.024.048 0 0 .022.06.024.07-.022.07.107.154.225.082-.036-.023-.107-.025-.118-.059a.106.106 0 0 1 .059-.025c.025-.023.025-.048.025-.084 0-.023.025-.023.025-.023.022-.023.036-.023.059-.023.024 0 .036.023.036.023.036.06.095.095.177.07.14-.048.022-.176.129-.188.025-.023.059-.025.095 0 .106.025.283.023.307-.036.036-.059.025-.248-.106-.319-.07-.036.022-.117-.06-.224a.902.902 0 0 0 .426.107c.318 0 .46-.048.613-.13.188-.095.343-.048.39-.036.036 0 .07.025.036.07-.07.166-.025.177-.082.248-.047.06-.165.023-.26 0-.047 0-.094.036-.094.036-.095.025-.202.095-.213.177a.371.371 0 0 1 .165-.07c-.023.023-.023.036-.023.036-.022.106.096.14.177.07.023-.025.048 0 .025.025-.07.048-.213.143-.14.177.022.023.036.023.059.036-.025.059.022.129.058.14-.022-.036-.022-.059.048-.129h.048c.081 0 .081-.13.165-.177h.023c-.048.082-.082.177-.025.202 0 0 .036.023.059.023 0 .059.07.106.177.059-.025-.023-.07-.036-.07-.07.024-.025.058-.06.07-.07.095-.166-.048-.166-.037-.225.025-.082.166-.025.225-.188 0-.036 0-.082-.048-.106-.023 0-.023-.023-.023-.023.06 0 .095.023.143-.048-.13.023-.059-.095-.059-.154 0-.023 0-.036.023-.036.047-.025.095-.07.095-.177-.048.06-.202.118-.188.023 0-.023.023-.082-.118-.059-.202.023-.507-.025-.897-.059-.025 0-.036-.023 0-.025.39-.036 1.192-.082 1.192-.33 0-.2-.036-.343-.72-.343-.684 0-2.23.248-2.23-.118 0-.176.307-.165.66-.142m-2.551-3.197c0 .023-.023.023-.023.023l.023-.023m-.06.248zm.189.319c.036-.06.059-.095.081-.095.048 0 .07 0 .096-.048.022-.06-.037-.082-.082-.118.048-.023.082-.036.048-.06-.025-.024-.082.026-.096 0-.022-.024.037-.047.048-.058.025-.023.036-.023.07 0l.225.106c.025.023.047.025.047.06 0 .024.023.058-.022.07-.037.022-.025-.07-.06-.07-.036-.024-.036.024-.022.081-.059-.025-.118-.059-.143 0-.025.048-.023.07.025.107.023.025 0 .059-.025.118-.023.048-.084.106-.154.07-.082-.036-.082-.13-.059-.166m.271-.566c-.036.07-.106.118-.176.059-.06-.06.022-.07-.07-.188.081.048.212.129.247.129m.177.095c.036.025.188.082.271.106-.117.025-.095.07-.176.07-.082-.023-.107-.106-.096-.177m5.17 1.287c0-.023 0-.025.023-.025.047-.036.081-.095.081-.188-.047.059-.199.129-.199.023 0-.023-.023-.095-.13-.07-.224.025-.436-.023-.849-.048-.025-.023-.036-.025 0-.036.413-.036 1.168-.095 1.168-.343 0-.213-.247-.354-.967-.354-.708 0-2.916.26-2.916-.129 0-.247.732-.154 1.299-.129.022.036.07.07.154.095.92.248 1.983-.413 2.537-.26-.732-.247-1.192.177-1.888.037.413 0 .85-.082.861-.189-.318.202-1.215-.129-1.593.095-.025.023-.047.036-.059.048-.684-.023-1.51-.082-1.51.307 0 .685 2.513.284 3.115.284.602 0 .732.059.732.165 0 .177-.602.213-.932.213-.579 0-2.916-.295-3.86-.025.06-.154.295-.378.188-.508.082-.036.14-.095.14-.176a.345.345 0 0 0-.176-.082c.036-.036-.023-.082-.036-.118-.023 0-.036-.095-.059-.118a.866.866 0 0 0-.213-.14c-.095-.049-.165-.049-.213-.049-.025-.023-.118.025-.13.023-.047 0-.106 0-.117.06a.213.213 0 0 0-.165-.07.34.34 0 0 0-.025.247c-.084 0-.177.213-.248.188.025.06.047.082.07.082-.059.13-.095.272-.177.272.048.07.082.106.118.106-.023.07-.023.154-.023.213l-.129-.048h-.118c-.025-.023-.07-.023-.106-.025-.118-.023-.213-.188-.401-.295-.143-.082-.143-.14-.143-.295 0-.118.059-.224.059-.33-.023-.024-.037-.083-.048-.107-.025-.082-.129-.14-.188-.118.036.025.07.048.082.118-.037.025-.06.059-.07.059-.023.036-.025.095.022.13.023.022.023.022.023.024 0 .023 0 .025-.023.048-.022.036-.022.023-.022 0-.025-.082-.07-.202-.155-.213h-.058v-.025c0-.084-.096-.154-.213-.048.036 0 .081.023.095.036-.023.025-.025.082-.025.095 0 .095.059.118.154.118a.04.04 0 0 1 .036.025c.023.023.023.025.023.036.023.025 0 .023-.023.023-.165-.07-.236 0-.236.07v.07c-.047.036-.07.118.048.177-.023-.025-.023-.082.025-.095h.025c.025.023.036.025.047.025.023.023.037.023.095-.025.023 0 .025-.023.048 0 0 .023.025.025.036.025.023.023.023.025 0 .036-.106.106-.095.201.06.224.022.023.024.023.024.036-.023.202-.283.154-.271-.036-.14.224.118.39.307.271.024 0 .024 0 .036.023 0 .036.025.07.059.07 0-.023.022-.048.047-.048.023 0 .023.023.023.025 0 .06.025.118.095.13 0-.049 0-.07.025-.07.048 0 .166.27.472.436-.022-.025.107-.07.166-.106.023.059.047.106.106.129l.048-.025c-.025.13.143.271.118.271-.048 0-.32-.048-.413.023-.13.07-.473.177-.567.048-.036-.048-.025-.082-.07-.154-.025-.059-.07-.082-.095-.082-.023 0-.048-.023-.082-.023-.059-.048-.177-.059-.224-.025.036.023.081.025.118.082 0 .025-.025.06-.025.07-.037.036-.023.107.188.177.023 0 .036.025.025.036-.037.023-.082.025-.118-.025-.095-.06-.095-.14-.202-.095-.023.023-.036.025-.059.036-.022 0-.022-.023-.025-.023-.095 0-.236.106-.165.213.023-.036.048-.082.106-.095 0 .025.025.048.025.059.025.106.06.188.284.048.025-.023.025 0 .022.023-.047.095-.201.177-.081.248 0 0 .036.025.047.036v.025c-.025.118.107.201.177.201-.025-.036-.082-.095-.07-.176.036.023.059.025.07.023.095-.036.048-.166.118-.202.023-.023.025 0 .025.023.023.048.025.165.165.154.118-.023.166-.106.154-.165 0-.023 0-.023.023-.023.048.025.07.07.059.129.025-.023.07-.048.095-.095.025.059.036.14-.047.224.047-.025.165-.082.201-.213.025.023.037.048.048.06 0 0 0-.024.023-.024.036.025.129.025.247 0 .023 0 .023 0 .023.023-.023.048-.023.107.023.13 0-.024.036-.07.059-.07.036 0-.023.117.07.201.025-.319.188-.188.401-.319.025-.023.025 0 .023.023-.023.036-.037.082-.084.107.07.059.354-.118.354-.236 0-.036.118-.048.213-.059.202.023.177-.14.26-.14 1.18.154.507-.485 1.888-.355.059 0 .095-.07.154-.117-.07.117-.082.39.059.413a.46.46 0 0 1 .236.095c.023.023 0 .023 0 .025-.084.023-.177.025-.202.048-.213.142-.213-.307-.436-.236-.025.023-.06.048-.07.059-.096-.023-.214.106-.2.188a.271.271 0 0 1 .154-.082v.048c0 .036.023.07.082.07.047 0 .059-.025.081-.025a.04.04 0 0 1 .037.025c0 .095-.283-.036-.236.188 0 0 .036.048.047.07-.022.07.048.14.177.095-.025-.023-.07-.048-.059-.082.025 0 .048 0 .048.023.023 0 .025-.023.036-.048h.023c.023 0 .025 0 .025.023s-.025.036-.025.048c0 .023.025.07.025.082 0 .084.118.165.248.084-.037 0-.118-.025-.13-.059a.15.15 0 0 1 .06-.025.106.106 0 0 0 .036-.082c0-.025.022-.025.022-.025h.07c.026-.023.026 0 .037.023.025.059.095.095.177.07.154-.048.025-.177.154-.213h.095c.118.036.283.036.319-.025.036-.06.023-.26-.107-.33-.081-.037 0-.141-.07-.237.13.048.272.107.449.107.33 0 .436-.048.59-.13.165-.106.342-.047.401-.047.036.023.07.025.06.082-.06.165 0 .176-.049.26-.036.058-.176.022-.271 0-.048 0-.107.035-.107.047-.081.023-.176.084-.188.177.037-.025.082-.07.166-.07v.025c0 .118.118.154.202.084.022-.023.036 0 .024.023-.07.048-.213.154-.106.202 0 0 .036.023.047.036-.022.059.048.129.107.142-.025-.036-.025-.059.023-.129h.059c.07 0 .047-.14.14-.188 0 0 .023 0 .023.023-.036.07-.06.177.023.202 0 0 .036.023.058.023.023.059.096.106.188.059-.022-.023-.058-.036-.081-.06.036-.035.059-.07.059-.081.07-.177-.082-.177-.07-.248.022-.084.176-.025.188-.202 0-.025 0-.082-.06-.095l-.022-.023c.059 0 .107.023.13-.059-.13.023-.071-.095-.096-.165m-16.01-5.57c.024-.035.047-.081.07-.081.047 0 .08-.023.094-.048.023-.06-.036-.084-.081-.118.047-.023.081-.036.047-.06-.024-.024-.081.026-.095 0-.022-.024.025-.047.048-.058.025-.025.036-.023.07 0l.236.106c.025.023.036.025.036.06 0 .022.023.058-.022.07-.025 0-.025-.07-.07-.07-.026-.024-.026.024-.023.07-.048-.024-.096-.037-.13.022-.024.036-.022.07.025.107.023.025 0 .059-.022.106-.025.048-.096.13-.166.082-.081-.048-.07-.129-.047-.176m.271-.555c-.047.059-.117.118-.188.059-.059-.06.023-.07-.059-.188.07.048.2.129.248.129m.165.082c.037.036.202.095.284.118-.13.025-.095.07-.188.07-.082 0-.107-.118-.096-.188m5.253.566c0-.213-.248-.342-.956-.342-.72 0-2.927.26-2.927-.13 0-.247.743-.153 1.286-.142.025.048.082.082.166.107.92.247 1.888-.355 2.549-.13-.52-.46-1.204.048-1.9-.095.413 0 .838-.082.861-.188-.318.202-1.215-.14-1.593.095-.025.023-.048.025-.06.048-.684-.023-1.51-.095-1.51.307 0 .685 2.502.283 3.116.283.602 0 .732.06.732.166 0 .165-.602.2-.944.2-.555 0-2.904-.284-3.836-.024.047-.154.271-.39.165-.507.095-.036.154-.107.154-.177a.345.345 0 0 0-.176-.082c.025-.036 0-.082-.037-.118-.022-.023-.036-.106-.047-.118-.048-.036-.107-.082-.213-.14-.107-.048-.177-.048-.213-.048-.037-.023-.13.023-.14.023-.048-.023-.107-.023-.119.048a.255.255 0 0 0-.165-.06.312.312 0 0 0-.025.237c-.084.023-.177.213-.248.202.025.059.048.082.07.082-.058.129-.095.271-.176.283l.081.082a.567.567 0 0 0-.036.201l-.07-.025c-.048 0-.095 0-.107-.023-.047 0-.07-.023-.118-.023-.117-.022-.201-.188-.389-.295-.143-.082-.154-.14-.154-.295 0-.118.059-.224.048-.342 0 0-.023-.07-.037-.095-.025-.082-.129-.14-.188-.13.036.026.07.06.082.13-.025.025-.06.048-.06.059-.024.036-.035.082 0 .118.024.023.024.023.024.036 0 .023 0 .025-.023.048 0 .025-.023.023-.023 0-.036-.082-.07-.213-.154-.213-.023 0-.036-.023-.059-.023.023 0 .023 0 .023-.023 0-.082-.107-.154-.213-.048.023 0 .059.023.084.036a.24.24 0 0 0-.037.084c0 .095.07.129.177.129.023 0 .025.023.025.025 0 .023.023.025.023.036.022.023 0 .023-.023.023-.154-.07-.236 0-.236.07v.059c-.059.048-.07.13.036.188 0-.025-.022-.082.048-.095 0 0 .023 0 .023-.023.024.023.047.036.047.048.023 0 .036 0 .095-.036.023-.023.025-.023.037 0 .022 0 .036.023.058.025v.036c-.117.095-.095.202.048.224.023 0 .023.023.023.025 0 .202-.272.166-.26-.025-.143.213.118.39.319.272.023-.023.023 0 .023.023.024.036.036.059.07.07 0-.023.023-.048.047-.048.023 0 .023.023.023.025 0 .059.025.118.095.13-.022-.049 0-.083.037-.083.036 0 .176.272.46.425.059-.023.14-.023.177-.084 0 .025.025.048.059.07.023.13.095.283.07.283-.048 0-.507-.025-.602.025-.129.07-.46.188-.555.06-.036-.049-.025-.096-.07-.155-.025-.048-.07-.082-.106-.082-.023-.023-.048-.023-.07-.023-.06-.048-.177-.059-.237-.025.048.023.096.023.13.082-.023.025-.025.06-.037.06-.025.047-.022.117.202.187.023 0 .025.025.023.025-.037.025-.07.025-.118-.023-.082-.059-.095-.142-.188-.095-.023.023-.037.025-.07.036 0 0-.023-.023-.025-.023-.082-.023-.236.107-.166.213.023-.036.048-.084.118-.095a.08.08 0 0 1 .023.06c.025.106.07.187.283.047.025-.023.025 0 .025.023-.048.095-.2.177-.082.248 0 0 .025.025.048.036 0 0-.023.023-.023.025-.023.118.118.2.177.2-.025-.036-.07-.095-.059-.189.025.023.059.036.059.025.106-.036.059-.165.118-.201.025-.025.036 0 .036.023 0 .048.025.165.154.154.118-.023.177-.107.166-.177 0-.023 0-.023.022-.023.037.036.07.07.06.13.024 0 .058-.037.094-.083.023.06.025.14-.059.213.048-.023.177-.07.213-.2.023.024.037.049.037.06.022 0 .022 0 .022-.023.048.025.13.025.248 0 .023 0 .023 0 .023.023 0 .048 0 .095.025.118 0 0 .036-.06.048-.06.036 0 0 .118.07.189.036-.295.4-.154.602-.272.025-.025.025-.023.025.023-.023.025-.048.07-.096.095.07.023.177-.036.26-.095 0 .023-.023.023-.025.025l.33-.143c0-.036.023-.059.023-.095.037-.023.082-.023.107-.025v.023c.201.023.177-.154.26-.14 1.18.154.507-.484 1.876-.354.07 0 .095-.036.154-.082-.07.129-.07.354.07.377a.46.46 0 0 1 .236.095c.023.023 0 .023-.022.025-.07.023-.166.025-.189.036-.213.143-.224-.295-.448-.213-.023 0-.048.025-.06.036-.094 0-.212.107-.187.2a.208.208 0 0 1 .14-.082v.048c-.022.036 0 .059.082.059.047 0 .059-.023.095-.023.023 0 .025.023.025.025 0 .082-.283-.048-.236.188l.036.07c0 .059.06.13.188.095-.024-.023-.081-.048-.07-.082h.07s.023 0 .023-.036c.023 0 .023-.023.025-.023.023.023.025.023.025.025 0 .025-.023.025-.023.048s0 .07.023.07c-.023.095.118.177.248.095-.037 0-.118-.025-.118-.06.022-.022.047-.035.047-.035.025 0 .037-.036.037-.07 0-.025.022-.025.025-.025h.047c.036-.023.048 0 .048.023.025.059.095.095.177.07.154-.048.024-.177.14-.202.025-.023.07-.025.095 0 .118.025.307.025.33-.036.037-.059.026-.26-.117-.33-.07-.048.023-.13-.06-.236.13.048.273.106.45.106.33 0 .412-.059.554-.129.166-.106.343-.048.401-.048.037.023.07.025.06.082-.037.166.024.177-.023.248-.037.07-.177.025-.272.023-.059 0-.106.036-.106.048-.082.023-.177.082-.166.177a.347.347 0 0 1 .14-.082c0 .023 0 .025.023.036 0 .118.13.154.202.082.023-.025.048 0 .036.023-.07.048-.201.154-.095.2.023 0 .037.022.06.024 0 .07.047.14.106.154-.025-.036-.025-.059.022-.129h.06c.07 0 .035-.142.117-.188.023 0 .023 0 .023.023-.025.07-.037.177.036.202h.059c.025.07.095.118.2.07-.026-.023-.07-.036-.096-.07a.337.337 0 0 0 .048-.07c.059-.177-.096-.177-.096-.248 0-.082.177-.025.177-.201a.132.132 0 0 0-.081-.107c.047 0 .106 0 .129-.048-.13 0-.095-.106-.107-.177-.022-.023-.022-.025.023-.036.036-.025.059-.07.048-.177-.037.06-.189.13-.202.023 0-.023 0-.095-.13-.07-.224.025-.377-.025-.778-.059.401-.025 1.156-.106 1.156-.377m-4.942-3.328c.025-.06.048-.095.082-.095.047 0 .07-.023.095-.06.023-.058-.036-.081-.095-.117.059-.023.095-.036.059-.06-.037-.035-.082.026-.096-.022-.025-.025.037-.036.048-.06.025-.022.036-.022.07 0l.236.119c.037.023.048.025.048.048 0 .036.023.07-.023.082-.025.023-.025-.07-.059-.082-.047 0-.047.036-.025.095-.059-.025-.106-.048-.142 0-.025.048-.023.07.024.118.025.025 0 .059-.022.117-.025.048-.095.13-.177.082-.082-.048-.07-.14-.048-.176m.284-.59c-.037.058-.118.117-.188.058-.07-.059.022-.082-.07-.199.07.048.212.13.26.14m.176.083c.036.036.213.095.295.117-.13.025-.106.082-.188.07-.084 0-.118-.106-.106-.188m-1.193 1.039c-.022 0-.022 0 0 0m5.89-.413c0-.224-.26-.366-1.003-.366-.756 0-2.455.272-2.455-.14 0-.202.33-.189.732-.155a.32.32 0 0 0 .154.082c.98.272 2.124-.224 2.714-.059-.696-.507-1.274.023-2.018-.14.425 0 .59-.118.602-.236-.33.213-.968-.107-1.369.129a.223.223 0 0 1-.059.048c-.543-.023-.968-.023-.968.33 0 .732 2.018.307 2.656.307.625 0 .767.06.767.177 0 .177-.625.213-.991.213-.543 0-2.196-.272-3.2-.084.071-.154.26-.354.155-.472a.259.259 0 0 0 .165-.188.43.43 0 0 0-.188-.082c.037-.036-.022-.095-.047-.118-.023-.025-.025-.118-.048-.13a.641.641 0 0 0-.224-.14c-.107-.059-.177-.059-.225-.07-.024 0-.129.025-.14.025-.048-.023-.107-.023-.118.059a.392.392 0 0 0-.177-.082c-.036.082-.059.154-.025.26-.095.022-.188.235-.271.201.036.06.059.095.084.095-.07.143-.107.283-.188.295.047.07.095.095.129.107-.023.095-.025.2-.025.283l-.165-.06c-.023-.022-.025-.022-.048-.022s-.036-.023-.059-.025c.025.023.048.023.07.025l-.095-.036c-.084-.06-.188-.188-.33-.272-.143-.082-.143-.154-.143-.295.023-.129.081-.247.081-.366-.022-.023-.024-.082-.036-.106-.022-.084-.129-.14-.201-.13.036.026.081.049.081.13-.025.025-.059.048-.07.059-.025.036-.036.082 0 .129.023.023.023.023.023.025 0 .023 0 .036-.023.059-.023.025-.023.023-.023 0-.036-.095-.07-.224-.154-.224-.022 0-.047-.023-.059 0v-.025c.023-.095-.095-.166-.213-.048.025 0 .06.023.095.036a.195.195 0 0 0-.036.095c-.023.095.06.129.154.129a.04.04 0 0 1 .037.025c.022.023.022.025.022.036 0 .025 0 .023-.022.023-.177-.07-.248 0-.26.082v.059c-.059.048-.081.129.025.2 0-.026 0-.096.048-.107 0 0 .022 0 .036-.023 0 .025.025.048.036.048.023 0 .048 0 .095-.036.025-.023.037-.023.048 0 .023.023.036.023.048.036.022 0 .022.025 0 .025-.13.118-.107.213.047.247.023 0 .025.023.025.025-.025.202-.307.166-.283-.036-.165.236.107.414.307.296.023-.023.025 0 .025.023.023.036.036.07.07.07 0-.023.023-.048.048-.048.022 0 .022.023.022.025 0 .059.023.118.096.129-.023-.036.022-.082.036-.082.036 0 .129.165.295.26.14.058.248.201.33.117-.022.13.118.296.096.296-.048 0-.437-.025-.532.025-.14.07-.495.188-.59.059-.036-.06-.024-.095-.07-.177a.236.236 0 0 0-.118-.082h-.081c-.048-.06-.177-.07-.236-.036.047.023.095.025.129.095-.023.025-.025.059-.036.07-.025.036-.023.118.213.188.022 0 .024.025.022.025-.036.025-.081.025-.118-.023-.081-.06-.106-.154-.201-.095-.023 0-.048.023-.07.036-.023-.023-.025-.023-.025-.023-.096-.023-.248.107-.177.213 0-.025.047-.082.118-.095 0 .025.022.059.022.07.025.107.084.188.307.048.025-.025.025 0 .025.023-.07.095-.213.177-.095.26 0 0 .025.023.048.036 0 .023 0 .023-.023.023-.023.129.129.224.202.224-.025-.036-.082-.095-.07-.188.024 0 .058.023.058.023.118-.048.07-.177.13-.2.024-.024.024-.022.024 0 .023.06.037.177.166.166.129-.023.188-.106.176-.177 0-.023 0-.023.023-.023.048.025.082.07.06.13.024 0 .08-.036.094-.082.037.059.037.129-.047.213.047-.023.176-.082.213-.213a.311.311 0 0 1 .047.07c.023 0 .023-.023.023-.023.048.025.13.025.26 0 .024-.023.024 0 .024.023-.025.048-.025.095.023.129 0-.025.036-.07.059-.07.025 0-.023.129.07.201.025-.318.213-.201.413-.33.037-.023.037 0 .025.025 0 .036-.036.07-.095.107.236.048.602-.296.649-.437a1 1 0 0 1 .224-.025c.661.059.202-.567 1.263-.39.07 0 .202-.07.26-.118-.07.13-.082.425.059.449a.5.5 0 0 1 .26.095c.022.023 0 .025-.024.025-.081.023-.176.036-.201.048-.225.154-.236-.32-.473-.236-.022.023-.047.036-.07.048-.095 0-.224.106-.201.201.036-.025.081-.07.154-.082v.06c0 .024.022.07.095.07.047 0 .059-.026.084-.026a.04.04 0 0 1 .036.025c0 .082-.295-.048-.236.202 0 0 .025.048.036.059-.023.07.059.154.188.118-.025-.025-.07-.06-.07-.095h.059c.025 0 .036 0 .036-.036 0 0 0-.023.023-.023.025.023.025.023.025.025 0 .023-.023.025-.023.048s.023.07.025.082c-.023.082.118.176.26.095-.037-.023-.13-.025-.141-.07a.129.129 0 0 1 .07-.025c.025-.023.025-.048.025-.095 0-.023.023-.023.025-.023.025 0 .036 0 .07-.023a.04.04 0 0 1 .036.025c.037.059.096.106.189.082.165-.06.024-.202.154-.225.025 0 .059-.023.095 0 .118.036.318.025.342-.036.036-.059.025-.271-.118-.354-.07-.036.023-.13-.07-.236.14.048.295.107.472.107.354 0 .437-.048.59-.14.177-.096.366-.049.425-.049.036.023.07.036.06.095-.037.166.024.188-.024.26-.036.07-.188.025-.294.023-.06-.023-.096.036-.096.048-.095.023-.188.082-.188.188a.297.297 0 0 1 .166-.082v.036c.022.118.14.165.213.082.025-.023.059 0 .036.023-.07.059-.202.165-.095.202.022.023.036.036.059.036 0 .07.059.154.118.165-.025-.048-.037-.06 0-.14h.07c.07 0 .036-.143.118-.189.024-.023.024-.023.024 0-.036.082-.058.188.025.213.023 0 .037.023.07.023a.135.135 0 0 0 .202.06c-.022-.024-.07-.037-.081-.07a.344.344 0 0 0 .059-.083c.047-.165-.118-.176-.118-.247 0-.082.188-.025.188-.213 0-.036-.023-.082-.082-.107-.022 0-.022 0 0-.023v.023c.048-.023.107 0 .13-.07-.141.023-.096-.095-.118-.165 0-.023 0-.036.022-.036.048-.036.084-.082.07-.188-.058.059-.201.129-.224 0 0 0-.023-.082-.143-.07-.236.036-.39-.023-.826-.06.496 0 1.228-.117 1.228-.389m-3.29-3.33c.024-.048.047-.07.07-.07.036 0 .058-.023.07-.048.036-.06-.025-.07-.06-.107.037-.023.06-.025.037-.048-.025-.036-.07.023-.084-.023-.022-.025.037-.036.048-.048.023-.025.036-.023.059 0l.201.095c.025.023.048.025.048.048 0 .025 0 .059-.023.07-.025 0-.025-.07-.059-.07-.024 0-.024.025-.022.07-.048-.025-.095-.036-.118.023-.023.036-.023.059.023.095.025.025 0 .059-.023.095-.023.048-.07.107-.143.07-.081-.036-.07-.106-.047-.154m.236-.508c-.025.06-.107.107-.154.06-.06-.06 0-.07-.06-.177.06.048.177.117.214.117m.154.084c.036.025.188.082.26.095-.119.025-.082.07-.166.07-.07 0-.107-.095-.095-.165m-.555.13-.023.022.023-.023m2.36.838c.768 0 1.157-.236 1.157-.472 0-.826-2.124-.319-2.124-.815 0-.082.059-.165.165-.224h.025c1.062-.106 1.074-.803 1.841-.944-.92-.13-1.05.566-1.44.602.213-.107.283-.342.272-.425-.189.236-.602.26-.827.531-.036.048-.059.107-.036.154-.14.082-.224.177-.224.295 0 .78 2.148.248 2.148.815 0 .201-.378.33-.968.33-.437 0-.755-.307-1.582-.106 0-.13.283-.378.166-.496.081-.036.143-.095.143-.154a.324.324 0 0 0-.155-.082c.025-.036-.022-.082-.047-.106 0-.023-.025-.095-.048-.107-.025-.025-.081-.082-.177-.13-.095-.047-.154-.047-.188-.047-.036-.023-.117.023-.117.023-.06-.023-.107-.023-.118.059a.19.19 0 0 0-.154-.07c-.037.07-.037.118-.025.224-.07 0-.154.188-.225.177.025.048.048.07.07.07-.058.118-.095.248-.165.248a.382.382 0 0 0 .06.07c-.06.165-.096.366-.119.472a.656.656 0 0 0-.165-.14c-.13-.07-.118-.118-.095-.237.022-.106.083-.2.095-.295 0-.023-.023-.07-.023-.095-.025-.07-.118-.118-.165-.106.025.025.047.048.047.106-.025.025-.047.047-.059.047-.036.036-.047.07-.024.107.022.023.022.023.022.025 0 .023-.022.025-.022.048-.023.025-.023.023-.023 0-.025-.07-.048-.177-.118-.188h-.059l.023-.023c.023-.07-.082-.141-.202-.048.025 0 .07 0 .084.036a.123.123 0 0 0-.036.07c-.025.07.036.106.129.106.025 0 .036.023.036.023v.036c0 .025 0 .025-.023.025-.14-.07-.224 0-.236.048 0 0-.022.048-.022.059-.048.036-.082.107.022.165 0-.036 0-.082.048-.095h.025c.023.023.036.025.036.036.023 0 .036 0 .095-.036h.048c0 .023.023.025.036.036.023 0 0 .023-.022.025-.118.084-.118.166.025.189.022 0 .022.023.022.036-.036.165-.283.117-.247-.048-.166.201.059.342.26.247.022 0 .024 0 .024.023 0 .025.025.06.059.06-.023-.024.023-.037.047-.037.023 0 .023.023.023.025-.023.036 0 .095.07.107-.022-.036 0-.07.037-.07.024 0 .081.142.188.26-.166.07-.46.14-.472.14-.037 0-.295-.036-.378.023-.118.059-.425.165-.508.048-.024-.036-.024-.082-.058-.14-.025-.049-.07-.07-.096-.07 0-.024-.036-.024-.07-.024-.047-.048-.165-.059-.201-.023.036 0 .081.023.117.06a.147.147 0 0 0-.036.07c-.025.035-.023.094.177.154.023.023.025.025.023.036-.037.023-.07.023-.107-.023-.07-.06-.082-.141-.177-.082 0 0-.025.023-.059.025l-.022-.023c-.084 0-.225.095-.154.188.022-.025.036-.07.095-.082.022.025.022.048.025.059.022.095.059.165.247.036.025-.023.025.023.025.023-.047.084-.177.165-.081.224.022 0 .036.025.047.036v.025c-.025.107.095.177.166.177a.15.15 0 0 1-.06-.166c.023 0 .048.025.048.025.096-.036.048-.154.107-.188.023-.023.025 0 .025.023 0 .036.025.154.143.14.106-.024.154-.106.154-.153v-.025c.047.025.081.07.059.129.024-.023.058-.036.081-.082.025.048.036.129-.047.188.047-.023.165-.06.188-.188.022.025.036.048.036.059h.023c.036.023.117.025.224-.023.025 0 .025 0 .025.023-.025.048-.025.082 0 .118 0-.023.036-.06.047-.06.037 0 0 .107.07.177.026-.283.177-.165.355-.283.025-.023.025-.023.025.023-.023.025-.037.06-.084.082.07 0 .224-.059.224-.154 0-.025.059-.059.118-.095.059.023.165-.025.202-.095.022.036.036.118 0 .14.176 0 .377-.201.448-.224.401-.084-.248-.354.579-.306a.545.545 0 0 0 .247-.095c-.07.129-.07.365.048.389.059 0 .177.036.213.082.023.023.023.023 0 .023-.082.023-.154.036-.177.047-.202.13-.202-.271-.413-.202 0 0-.036.025-.048.036-.083 0-.188.095-.176.177a.254.254 0 0 1 .129-.07v.048c0 .025.023.06.081.06.037 0 .048-.026.082-.026.023 0 .025.023.025.025 0 .082-.26-.048-.213.166 0 .023.025.048.036.07-.022.059.048.118.166.082-.025-.023-.07-.036-.06-.07h.048c.023 0 .025 0 .037-.036 0 0 0-.023 0 0 .025 0 .036 0 .036.023s-.025.025-.025.048c0 0 .023.059.025.059-.023.082.106.154.213.082-.025 0-.095-.023-.107-.06a.069.069 0 0 0 .048-.024c.025-.023.036-.036.036-.06s.023-.024.023-.024c.025 0 .036 0 .059-.023.025 0 .025.023.036.023.025.059.084.095.154.07.14-.048.025-.154.14-.177.023-.023.048-.025.071 0 .118.025.271.023.307-.036.025-.048.023-.236-.107-.307-.07-.036.023-.106-.059-.213a.84.84 0 0 0 .402.107c.295 0 .022-.048.154-.118.14-.095.307-.048.354-.036.036 0 .07.023.059.059-.037.154.022.165-.025.236-.025.059-.154.023-.236.023-.06-.023-.095.025-.095.036-.07.023-.166.07-.155.165a.254.254 0 0 1 .13-.07v.025c.022.107.129.14.201.07 0-.023.037 0 .025.023-.059.048-.177.143-.081.188.022 0 .036.023.047.023 0 .07.048.13.107.14-.025-.035-.037-.047 0-.117h.059c.058 0 .024-.13.106-.165h.023c-.025.082-.036.165.025.188 0 0 .036 0 .059.023.024.059.081.095.176.048-.022-.023-.07-.036-.081-.06.025-.024.047-.058.047-.058.048-.166-.081-.166-.081-.225 0-.07.154-.025.154-.188 0-.025-.023-.07-.07-.095.047 0 .095.023.106-.048-.106 0-.07-.095-.095-.154 0-.023 0-.023.023-.025.036-.025.07-.07.047-.165-.036.047-.165.106-.177.023-.022-.023-.022-.082-.129-.06-.188.024-.283-.094-.66-.117-.026 0-.048-.025 0-.025m-.28 10.904-.14-.023c-.165-.023-.378.07-.401.283-.025.224.143.342.354.354h.106c-.022.048-.022.106-.024.154-.048.306-.13.826-.225 1.416l-1.617-2.22c.756-.294 1.37-.6 1.688-.6.26 0 .319.117.26.625m-.614 3.859-2.538-3.505a7.44 7.44 0 0 0 .815-.236l1.912 2.632c-.06.365-.118.755-.188 1.11m-.26 1.592-3.6-4.992c.118 0 .236.023.33.023a4 4 0 0 0 .556-.048l2.891 4.001c-.07.378-.129.732-.177 1.027m-4.06-4.957 3.942 5.476c-2.112-.79-4.201-2.62-3.942-5.476m5.866-.425-.177-.023v-.177c.025-.602-.353-1.062-1.026-1.062-.614 0-1.782.767-3.423.767-.696 0-1.523-.33-2.042-.626l-.201.473v-.048a.403.403 0 0 0-.402-.39.399.399 0 0 0-.413.39c0 .213.177.389.413.389a.423.423 0 0 0 .307-.14l-.201.472c.07.025.142.059.213.082-.248 2.396 1.605 5.453 4.85 6.385.472-.13.968-.048.968.448 0 .319-.165.46-.448.46-.202 0-.33-.106-.33-.235 0-.213.389-.082.424-.236.048-.188-.082-.272-.307-.272-.224 0-.566.14-.566.508 0 .436.354.684.743.684.354 0 1.122-.202 1.015-1.05.177.023.366-.025.413-.188l.037-.484-.177-.025.14-5.488h.13c.201.023.389-.07.4-.295.023-.213-.165-.319-.342-.33m8.889-5.737a.548.548 0 0 0 .294-.26c-.154.06-.27-.023-.306-.036.106-.059.235.023.106-.177-.118-.188-.202-.201-.33-.059-.13.13-.956-.036-.956-.649a.563.563 0 0 0 .283.236c.036.023.07.025.106.048a.18.18 0 0 0 .107.023.589.589 0 0 0 .235.048h.048v-.025c.177-.036.319-.142.33-.319.026-.33-.294-.483-.66-.778-.14-.118-.248-.213-.342-.296-.118-.247-.037-.46-.355-.897-.025-.106-.036-.224-.106-.39-.166.284-.236.839.201 1.287.343.366 1.098.72 1.063 1.04 0 .07-.07.14-.188.165-.037 0-.07 0-.107-.023-.022 0-.036-.023-.07-.025-.048-.023-.095-.036-.154-.07-.082-.048-.165-.095-.26-.189-.306-.283-.59-.696-.767-.92-.354-.425-.2-.838-.14-1.204.236-.319-.154-.98-.378-1.145 0 0 .048-.154-.025-.354-.048.048-.154.036-.213.025-.059-.118-.082-.143-.165-.154-.155-.025-.155-.107-.166-.166-.081.082-.118.155-.213.155-.118.023-.177 0-.224.048-.082.059-.118.095-.26.082-.142 0-.129.082-.129.176.025.06.025.166.107.188.022.023.025.025.047.025l.118.13.059-.13c.07-.07.248-.07.283.048.025.095.048.118-.07.13-.118.023-.188.023-.307.025-.07 0-.07.095-.07.165s.095.118.26.07c.176-.036.46-.07.46.07 0 .366-.425.354-.52.78a.827.827 0 0 1-.26-.237 1.626 1.626 0 0 0-.318-.377 1.85 1.85 0 0 0-.319-.26c-.14-.082-.154-.154-.154-.295 0-.13.06-.248.06-.366a.228.228 0 0 0-.048-.107c-.025-.082-.13-.142-.202-.129.036.025.07.06.084.13-.037.024-.06.058-.06.07-.024.024-.035.07.024.117.022.023.022.023.022.025 0 .025-.022.036-.022.07-.023.025-.023 0-.025-.023-.037-.082-.07-.213-.154-.224h-.07c0-.023.022-.023.022-.025 0-.082-.118-.166-.236-.048a.17.17 0 0 1 .095.036c-.023.025-.025.082-.025.095 0 .095.07.129.177.129.025 0 .025.023.036.025 0 .023.023.025.023.048s-.023.023-.025.023c-.165-.084-.236 0-.248.07 0 0 0 .048.023.07-.07.036-.082.118.036.188 0-.025-.023-.082.036-.095.023-.023.023-.023.025-.023.023.025.037.036.048.036.023.023.048 0 .095-.036.023 0 .036-.023.048 0 .022.025.025.025.047.036.023.023.023.023 0 .025-.106.107-.081.202.048.236-.07.118-.271.07-.26-.106-.14.236.096.389.296.306.022.082.022.248.036.248 0-.023.023-.048.048-.048.022 0 .022.023.022.025.023.047.037.118.107.13-.023-.037.023-.06.025-.07.036.058.07.117.106.153.095.177.295.602.732.791-.213.13-.378.319-.52.484-.129.118-.306.248-.424.177-.048-.036-.06-.082-.13-.13-.058-.035-.106-.046-.142-.035-.023 0-.048.023-.07.036-.082-.036-.202 0-.236.07.047-.023.095-.025.165.025-.023.025-.023.07-.023.07-.022.048.037.117.272.095.022 0 .036.023.025.025a.118.118 0 0 1-.118.036c-.107-.025-.154-.107-.225-.023-.022 0-.036.036-.059.059 0-.023-.022 0-.022 0-.095.036-.188.201-.082.271 0-.036.023-.095.07-.14.025.025.048.048.048.059.07.095.14.14.295-.082.023-.025.025 0 .025.023-.023.106-.118.247.025.271.023 0 .036 0 .07.023v.025c.025.118.188.154.26.118-.048-.023-.118-.048-.154-.143.036 0 .07-.023.081-.023.07-.082-.025-.188.025-.236 0-.025.023-.025.025 0 .036.047.107.14.224.082a.23.23 0 0 0 .096-.142c.154-.06.295-.118.4-.082-.022-.07.071-.189.249-.225.165-.047.235 0 .294.048a.9.9 0 0 1 .166-.272c-.025.638.861.614 1.074 1.004-.272-.118-.567-.177-.732-.14-.213.035-.59.235-.649.471-.025.188.177.543.39.685-.248.036-.343-.036-.579.025-.023 0-.025-.023-.025-.023-.202.025-.236-.319-.472-.224-.023 0-.048.025-.059.048h-.023c-.081 0-.224.106-.188.201a.279.279 0 0 1 .14-.095v.06c0 .035.023.07.096.07.047 0 .059-.026.095-.026.023 0 .025.023.025.036 0 .082-.295-.059-.248.188.023 0 .036.048.048.07-.023.07.059.143.188.107-.025-.025-.07-.06-.06-.095.026.023.048.023.048.023.025 0 .037-.023.037-.048h.022c.025 0 .037 0 .037.025 0 .023-.025.025-.025.048 0 0 .025.07.025.082 0 .082.117.177.247.082-.036 0-.118-.025-.118-.06a.106.106 0 0 1 .06-.024c.022-.025.024-.06.024-.082 0-.036.023-.036.025-.036h.07c.025 0 .025.023.037.025.036.048.095.095.188.07a.288.288 0 0 0 .081-.06l.096.06c-.025-.095.047-.166.247-.036l.154-.118s.202.082.272 0c.13-.106.059-.118.059-.213-.095-.188-.13-.177-.177-.354-.07-.319.39-.496.661-.449.048.202.342.732.826.898.307.095.425-.225.52-.177.024 0 .047.036.058.082-.022.143.023.271-.036.342-.036.07-.188.023-.307.023-.059-.023-.106.036-.118.048-.081.023-.201.095-.188.202.037-.025.096-.082.166-.082v.036c.025.129.165.165.247.082.023-.025.048 0 .025.023-.07.059-.213.176-.095.224.023 0 .048.025.06.036 0 .07.058.154.128.165-.025-.048-.036-.07.023-.154h.059c.081 0 .047-.154.14-.201.023-.023.025 0 .023 0-.025.095-.048.201.036.224.023 0 .048.023.07.023.025.07.118.13.237.07-.037-.023-.096-.036-.107-.07.025-.036.059-.07.059-.082.059-.188-.118-.188-.118-.272 0-.095.2-.036.2-.224 0 0 0-.025-.023-.025.095-.048.188-.118.202-.188a.421.421 0 0 1-.248-.036zm-1.134-4.179c-.095.095-.129.202-.106.284.036.106.13.201.319.213a.634.634 0 0 0-.248.425.738.738 0 0 0 .496-.107c-.048.177.025.283.118.342.058.048.176.048.283 0a11.147 11.147 0 0 1 1.57 4.131.729.729 0 0 0-.39-.106c.023.213.095.366.213.472h-2.632c.025-.154-.059-.295-.177-.33-.106-.037-.236-.026-.354.117a.776.776 0 0 0-.213-.448.696.696 0 0 0-.199.448c-.118-.14-.248-.154-.354-.118-.106.036-.202.177-.177.33h-2.254a.626.626 0 0 0 .165-.424.755.755 0 0 0-.46.154v-3.517c.177.025.33-.06.366-.166.036-.106.025-.224-.13-.342a.869.869 0 0 0 .473-.2.667.667 0 0 0-.472-.201c.154-.118.165-.248.129-.342-.036-.107-.188-.202-.366-.166v-2.986c.106.082.236.14.39.154a.615.615 0 0 0-.096-.425c.697.225 1.37.543 2.03.956a9.918 9.918 0 0 1 2.078 1.853m2.986 5.276c.176.118.117.401-.118.366-.225-1.841-.945-3.635-2.018-5.158 0-.023.022-.025.024-.036a.643.643 0 0 0 .449-.53.719.719 0 0 0-.685.294c-.07-.106-.154-.201-.224-.295a10.231 10.231 0 0 0-2.29-2.065 8.513 8.513 0 0 0-2.537-1.122c.022-.199.283-.235.39-.059.036-.318-.26-.483-.426-.413-.095.025-.176.107-.188.248a.735.735 0 0 0-.484-.248.638.638 0 0 0 .166.496c-.154-.023-.236.048-.296.13-.081.153.037.448.366.471-.154-.117-.083-.365.118-.354v3.978a.69.69 0 0 0-.684.177.683.683 0 0 0 .684.165v4.32c-.224.025-.283-.248-.106-.366-.33 0-.473.295-.402.448.048.095.14.177.343.155a.63.63 0 0 0-.177.46.679.679 0 0 0 .46-.177c-.023.188.07.283.177.33.154.07.46-.059.46-.389-.13.166-.39.118-.39-.084h3.105c-.06.188-.025.437.176.661a.664.664 0 0 0 .188-.661h3.459c.024.213-.248.272-.378.106.023.32.319.449.472.378.107-.048.177-.154.154-.342a.732.732 0 0 0 .472.165.63.63 0 0 0-.188-.448c.188.023.295-.07.343-.166.07-.154-.084-.448-.414-.436m-8.878 1.995v-12.24a9.756 9.756 0 0 1 3.812.945c1.31.625 2.49 1.522 3.506 2.667a12.96 12.96 0 0 1 2.36 3.978c.555 1.475.838 3.045.873 4.65zm-.449-17.35c-3.6 0-6.078 1.027-7.518 1.948-.838-.472-1.192-.945-1.192-1.488 0-1.983 5.771-2.148 8.71-2.148 2.927 0 8.71.166 8.71 2.148 0 .543-.353 1.016-1.191 1.488-1.44-.921-3.93-1.948-7.519-1.948m-.188 17.35h-10.8a13.79 13.79 0 0 1 .862-4.65 12.767 12.767 0 0 1 2.373-3.978 10.862 10.862 0 0 1 3.493-2.667 9.81 9.81 0 0 1 4.072-.956zm16.394-.78c-.378-.27-.991-.813-1.31-1.45-.401-.803-2.066-3.99-2.337-4.415-.213-.366-.319-.673-.319-.956 0-.33.166-.602.354-.85.13-.154.496-.495.626-.708.106-.154.202-.271.307-.378-.614-1.015-1.24-1.794-2.042-2.655a16.452 16.452 0 0 0-3.281-2.75c.649-.402 1.298-.98 1.298-1.948 0-.566-.248-1.027-.673-1.392.673-2.09 1.889-4.615 2.916-5.713l-2.172-.885c.567.826.602 1.794.484 2.36-.578-.377-1.05-.897-1.216-1.581-.106.637-.472 1.664-.79 2.278.613-.283 1.12-.413 1.77-.154-.378.472-1.31 1.204-2.738.873-.78-.177-1.547-.566-1.511-1.145.025-.342.283-.755.767-.72.472.048.496.744.354 1.051.626-.33 1.263-2.09.295-2.349-.767-.213-1.463.803-1.711 1.582-.154-.933-.555-1.83-1.322-1.782-1.003.059-.673 1.853-.33 2.301.07-.625.424-.956.72-.944.259.025.613.213.554.767-.07.578-.897.92-1.865.92-.92 0-2.525-.27-2.679-1.982.59.106 1.535.543 1.924 1.121-.118-1.039-.118-1.77 0-2.844-.496.672-1.322 1.026-1.9 1.11.165-.733.826-1.5 1.581-1.96h-3.942c.755.46 1.405 1.227 1.582 1.96-.579-.096-1.393-.45-1.877-1.11.13 1.074.13 1.805 0 2.844.39-.567 1.298-1.003 1.9-1.11-.154 1.7-1.758 1.972-2.679 1.972-.968 0-1.794-.343-1.865-.92-.059-.556.296-.745.567-.768.283-.023.637.319.708.944.342-.448.673-2.242-.33-2.301-.768-.048-1.169.85-1.31 1.782-.26-.78-.957-1.794-1.724-1.582-.968.26-.319 2.018.295 2.349-.143-.307-.118-1.003.354-1.05.484-.037.744.377.767.72.037.578-.731.967-1.51 1.144-1.417.33-2.35-.39-2.727-.873.65-.26 1.157-.13 1.794.154-.33-.614-.684-1.64-.802-2.278-.166.696-.65 1.227-1.228 1.605-.129-.566-.095-1.546.472-2.384l-2.171.885c1.038 1.11 2.254 3.635 2.927 5.736-.425.354-.65.803-.65 1.37 0 .967.638 1.557 1.287 1.947a16.063 16.063 0 0 0-3.27 2.75 17.52 17.52 0 0 0-3.47 5.57c.308.307 1.606 1.677 1.913 2.042.53.661.861 1.322.873 1.83.025.956.236 1.322.756 1.96.165.2.4.943.436 1.404h10.776v11.342c-.425.025-.873.13-1.24.567 1.252.484 2.432.92 3.624 1.274.107-.743.272-1.203.661-1.664 0 0-1.57-.14-2.408-.188v-11.33h10.54a13.96 13.96 0 0 1-.861 4.485 12.83 12.83 0 0 1-2.361 3.977 11.035 11.035 0 0 1-3.505 2.667c-.214.095-.202.248-.414.33-.188.189-.377.532-.519.922-.129.342-.177.578-.248 1.026.496.154.768.225 1.24.342 3.706.898 4.615.626 4.827.473a15.756 15.756 0 0 0 2.337-2.113 17.71 17.71 0 0 0 3.458-5.618 18.866 18.866 0 0 0 1.275-6.87c0-.436.022-.578-.023-1.014m20.311 26.13c-.048-.143-.213-.224-.378-.177-3.375.945-7.565-1.758-11.625-4.367-3.411-2.195-6.634-4.272-9.407-4.272-1.015 0-1.924.213-2.715.626-.956.507-1.676 1.321-2.148 2.407-.46 1.086-.956 1.842-1.345 2.443-.46.709-.815 1.228-.815 1.865 0 .531.236 1.003.708 1.464.39.377.957.743 1.783 1.168.165.095.342.177.507.248.673.319 1.098.531 1.169.897-1.334.566-3.069 1.039-5.028 1.369a44.6 44.6 0 0 1-7.223.567c-2.562 0-4.993-.2-7.212-.567-1.971-.33-3.706-.803-5.04-1.381.06-.543.472-.755 1.204-1.086.177-.084.342-.165.52-.248.672-.342 1.31-.684 1.735-1.062.483-.401.708-.838.708-1.369 0-.637-.343-1.157-.815-1.865-.39-.602-.873-1.357-1.345-2.443-.46-1.086-1.192-1.9-2.148-2.408-.78-.4-1.7-.625-2.715-.625-2.762 0-5.984 2.077-9.407 4.284-4.048 2.609-8.25 5.311-11.625 4.355a.31.31 0 0 0-.378.188.3.3 0 0 0 .165.366c1.04.449 1.936 1.121 2.821 1.782 1.216.921 2.36 1.783 3.636 1.783 1.192 0 2.49-.366 4.06-1.157 1.357-.685 2.773-1.617 4.142-2.514 2.668-1.77 5.418-3.588 8.05-3.789a13.21 13.21 0 0 1-.803.72c-.767.673-1.44 1.251-1.44 2.42 0 .92.33 1.581.78 2.49.142.26.283.567.448.897.283.626.413 1.133.59 1.818.07.307.154.637.26 1.027.176.602.484 1.735 2.395 2.667 2.231 1.098 6.079 1.652 11.414 1.652 5.346 0 9.182-.554 11.413-1.652 1.924-.932 2.23-2.065 2.396-2.667.106-.39.188-.72.271-1.027.177-.685.295-1.192.59-1.818.213-.46.413-.826.602-1.156.402-.732.708-1.299.708-2.137 0-1.168-.696-1.782-1.51-2.49-.26-.213-.532-.46-.815-.743 2.62.199 5.382 2.018 8.05 3.788 1.369.897 2.785 1.83 4.142 2.514 1.57.79 2.857 1.157 4.06 1.157 1.263 0 2.42-.862 3.647-1.794.862-.65 1.77-1.334 2.798-1.77a.29.29 0 0 0 .165-.378m-33.06-.779c-.176-.319-.436-.495-.648-.495-.992 0-.603 2.514-1.783 2.514-.507 0-.779-.32-.779-.685 0-.343.26-.449.26-.732s-.236-.39-.496-.39c-.248 0-.484.107-.484.39 0 .283.26.39.26.732 0 .366-.283.684-.79.684-1.17 0-.78-2.514-1.771-2.514-.225 0-.484.177-.65.496-.201-.366-.307-.72-.307-.991 0-.46.366-1.098 1.134-1.098 1.322 0 1.015 1.735 1.64 1.735.283 0 .484-.154.484-.425 0-.496-.909-.956-.909-1.664s.661-1.298 1.393-1.865c.732.567 1.405 1.157 1.405 1.865s-.91 1.168-.91 1.664c0 .271.202.425.473.425.637 0 .33-1.735 1.64-1.735.78 0 1.145.637 1.145 1.098 0 .271-.118.625-.307.991m-3.446 3.506a.622.622 0 0 1-.637-.614c0-.343.283-.626.637-.626.354 0 .65.283.65.626 0 .342-.296.613-.65.613m2.608-6.078c-.176 0-.33.025-.483.06v-2.775a20.742 20.742 0 0 1-4.226-.625v3.41a1.68 1.68 0 0 0-.507-.07c-1.015 0-1.64.827-1.64 1.582 0 .72.436 1.381.814 1.795.199-.425.365-.78.625-.78.496 0 .272 2.408 1.735 2.479-.048.118-.07.248-.07.39 0 .613.52 1.11 1.145 1.11.637 0 1.145-.497 1.145-1.11 0-.143-.025-.272-.07-.39 1.475-.07 1.227-2.479 1.734-2.479.248 0 .402.331.626.78.378-.414.814-1.075.814-1.795 0-.755-.613-1.581-1.64-1.581m-1.24-4.603c-.532 0-.945-.414-.945-.91 0-.507.413-.908.945-.908.519 0 .944.401.944.909 0 .495-.425.909-.944.909m-4.52-1.346c-.58 0-1.04-.449-1.04-.992 0-.554.46-1.003 1.04-1.003.566 0 1.026.449 1.026 1.003 0 .543-.46.992-1.027.992m-1.57-4.438-.248-.177c-.472-.342-.861-.342-1.286.023-.2.166-.378.366-.555.555l-.26.295.178.143c.495.378.566.79.424 1.039a.497.497 0 0 1-.259.201c-.236.048-.59-.036-.944-.236l-.188-.106-.107.177c-.036.048-.059.082-.095.129-.048.059-.082.118-.13.2-.212.353-.318.625-.318.837 0 .07.023.13.036.188.07.26.296.378.484.484l.118.06c.213.14.53.318.767.448-.437.236-.885.26-1.322.048-.66-.307-1.086-1.039-1.086-1.393 0-.555.26-1.251.732-1.971l.07-.106-.07-.118a4.253 4.253 0 0 1-.33-.638c.247.036.483.07.731.13l.13.036.081-.095c.295-.307 1.31-1.299 2.254-1.299.425 0 .862.213 1.18.579.249.271.402.578.45.897-.13-.095-.284-.202-.437-.319m8.84 3.506c-2.42-.59-5.288-1.582-7.979-2.762l.023-.025c.084-.532-.13-1.122-.555-1.582-.4-.449-.956-.72-1.51-.72-.248 0-.496.059-.732.143-.39-.343-.767-.697-1.11-1.098A12.638 12.638 0 0 1 59 44.706a14.168 14.168 0 0 1-.696-2.632c-.118.756-1.004 1.759-2.514 1.77.025-.165.022-.542-.13-.577-.4.436-.991.885-2.36.424.213 1.027.507 2.042.885 3.022.814 2.1 1.983 3.99 3.47 5.618a16.7 16.7 0 0 0 1.546 1.487 1.407 1.407 0 0 0-.025.307c0 .543.543 1.416 1.334 1.782.637.295 1.334.224 1.96-.224 1.18.613 2.678 1.168 4.284 1.605 1.806.484 3.552.755 4.91.755 1.18 0 2.738-.543 4.272-1.463.614-.378 1.192-.791 1.617-1.192.059-.048.107-.095.166-.143-1.204.165-2.998-.165-4.474-.52m-2.83-50.853c-.543-.414-.968-1.004-1.05-1.641.625.118 1.321.555 1.746 1.074V.755c-.425.52-1.121.968-1.747 1.063.07-.614.472-1.18 1.004-1.818h-2.55c.543.638.932 1.204 1.003 1.818-.625-.095-1.322-.543-1.746-1.062v2.549c.424-.52 1.12-.956 1.746-1.074-.081.637-.495 1.227-1.05 1.64zm-3.671 3.092c.236 1.038 1.204 1.817 2.349 1.817 1.156 0 2.113-.779 2.348-1.817zm2.856-.91h1.865c-.165-.943-.909-1.687-1.865-1.887zm-1.003 0V4.167c-.956.199-1.711.944-1.877 1.888zm1.806 3.495a2.95 2.95 0 0 1-.862.26v3.162h.862zm-2.62 3.422h.861V9.808a3.465 3.465 0 0 1-.861-.26zm2.797-4c0 .412.342.743.767.743s.767-.33.767-.744a.761.761 0 0 0-.767-.743.761.761 0 0 0-.767.743m2.561-.07c.425 0 .767-.33.767-.743 0-.401-.342-.732-.767-.732s-.767.33-.767.732c0 .413.342.743.767.743m1.9-.53c.425 0 .767-.331.767-.733a.753.753 0 0 0-.767-.743c-.425 0-.779.33-.779.743 0 .402.354.732.78.732m5.405 1.664c.425 0 .767-.33.767-.743a.753.753 0 0 0-.767-.744.754.754 0 0 0-.767.744c0 .413.342.743.767.743m-1.5-1.274c.426 0 .768-.33.768-.732a.753.753 0 0 0-.767-.743.753.753 0 0 0-.767.743c0 .401.342.732.767.732m-1.912-.567c.425 0 .779-.33.779-.743 0-.402-.354-.732-.779-.732-.425 0-.767.33-.767.732 0 .413.342.743.767.743m4.13 5.642a.753.753 0 0 0-.766.743c0 .402.342.732.767.732.413 0 .767-.33.767-.732 0-.413-.354-.743-.767-.743m.366-1.794a.754.754 0 0 0-.767.743c0 .413.342.732.767.732s.779-.319.779-.732-.354-.743-.78-.743m-1.014-1.062c0 .413.342.743.767.743s.767-.33.767-.743c0-.402-.342-.732-.767-.732s-.767.33-.767.732m-13.68-1.263c.425 0 .768-.33.768-.744a.753.753 0 0 0-.767-.743.754.754 0 0 0-.768.743c0 .413.343.744.768.744M65.044 8.9c.425 0 .768-.33.768-.743 0-.401-.343-.732-.768-.732-.424 0-.767.33-.767.732 0 .413.343.743.767.743m-1.9-.53c.425 0 .767-.331.767-.733a.753.753 0 0 0-.767-.743c-.413 0-.767.33-.767.743 0 .402.354.732.767.732m-5.405 1.664c.425 0 .767-.33.767-.743a.753.753 0 0 0-.767-.744c-.413 0-.768.33-.768.744 0 .413.355.743.768.743m1.499-1.274c.424 0 .767-.33.767-.732a.753.753 0 0 0-.767-.743.753.753 0 0 0-.768.743c0 .401.343.732.768.732m1.912-.567c.425 0 .767-.33.767-.743 0-.402-.342-.732-.767-.732s-.768.33-.768.732c0 .413.343.743.768.743m-3.364 6.385a.753.753 0 0 0-.767-.743c-.413 0-.768.33-.768.743 0 .402.355.732.768.732.425 0 .767-.33.767-.732m-.366-1.794c0-.413-.354-.743-.779-.743a.75.75 0 0 0-.756.743c0 .402.343.732.756.732.425 0 .779-.33.779-.732m-.52-1.062c.426 0 .768-.33.768-.743 0-.402-.342-.732-.767-.732s-.768.33-.768.732c0 .413.343.743.768.743m17.88.472c.437.815.827 1.299.756 1.924-.059.637-.744 1.074-1.062 1.712-.295-.732-.791-1.287-.732-1.865.059-.579.885-1.346 1.039-1.77m-11.354 0c-.437.814-.815 1.298-.756 1.923.059.637.744 1.074 1.062 1.712.296-.732.791-1.287.732-1.865-.059-.579-.885-1.346-1.038-1.77m131.93 219.245c-1.252 5.973-5.69 9.207-11.968 9.207-8.935 0-13.16-5.96-13.432-14.223 0-8.096 5.524-14.056 13.16-14.056 9.903 0 12.936 8.934 12.664 15.473h-20.95c-.165 4.709 2.597 8.887 8.711 8.887 3.789 0 6.444-1.782 7.259-5.288zm-4.438-7.518c-.225-4.237-3.53-7.636-8.073-7.636-4.816 0-7.684 3.505-8.014 7.636zm-28.421-2.254c-.696-3.4-3.14-5.382-6.928-5.382-6.657 0-8.722 5.075-8.722 10.563 0 4.97 2.337 9.879 8.179 9.879 4.438 0 7.093-2.502 7.683-6.586h4.71c-1.027 6.586-5.3 10.504-12.334 10.504-8.569 0-13.113-5.747-13.113-13.797 0-8.108 4.332-14.481 13.207-14.481 6.338 0 11.437 2.868 12.086 9.3zm-24.856-13.538h-4.603v-5.44h4.603zm-4.603 4.863h4.614v27.028h-4.614zm-13.278 27.028h-4.922l-10.398-27.028h5.134l7.86 22.531h.107l7.636-22.531h4.816zm-31.325-27.028h4.332v5.7h.106c2.22-4.343 5.312-6.49 10.292-6.325v4.697c-7.412 0-10.126 4.084-10.126 10.93v12.026h-4.603zm-4.142 18.447c-1.24 5.973-5.677 9.207-11.968 9.207-8.935 0-13.148-5.96-13.42-14.223 0-8.096 5.512-14.056 13.16-14.056 9.903 0 12.936 8.934 12.664 15.473H63.77c-.154 4.709 2.609 8.887 8.722 8.887 3.789 0 6.444-1.782 7.259-5.288zm-4.438-7.518c-.213-4.237-3.517-7.636-8.061-7.636-4.828 0-7.696 3.505-8.026 7.636zm-30.25-10.304c-.59-5.334-4.273-7.636-9.584-7.636-4.332 0-8.663 1.523-8.663 6.386 0 4.59 6.172 5.275 12.404 6.644 6.173 1.346 12.346 3.447 12.346 10.764 0 7.944-8.073 11.142-15.108 11.142-8.663 0-15.968-4.084-15.968-13.184h4.862c0 6.28 5.418 8.994 11.272 8.994 4.65 0 9.796-1.416 9.796-6.798 0-5.123-6.173-6.008-12.346-7.318-6.172-1.31-12.404-3.033-12.404-9.879 0-7.577 6.999-10.929 14.021-10.929 7.908 0 13.927 3.612 14.246 11.814zm245.79-65.846H300v37.331h-4.603zm-3.41 37.225c-.804.472-1.83.732-3.306.732-2.372 0-3.895-1.251-3.895-4.19-2.537 2.88-5.948 4.19-9.855 4.19-5.087 0-9.253-2.195-9.253-7.59 0-6.101 4.71-7.411 9.477-8.308 5.087-.933 9.419-.626 9.419-3.966 0-3.871-3.305-4.497-6.232-4.497-3.895 0-6.763 1.145-6.975 5.123h-4.603c.26-6.693 5.63-9.053 11.85-9.053 5.04 0 10.504 1.11 10.504 7.435v13.904c0 2.09 0 3.022 1.464 3.022a3.97 3.97 0 0 0 1.404-.26zm-7.472-13.856c-1.782 1.25-5.252 1.31-8.333 1.829-3.033.52-5.63 1.57-5.63 4.863 0 2.927 2.597 3.966 5.418 3.966 6.055 0 8.545-3.66 8.545-6.114zm-23.086-17.928h-4.603v-5.441h4.603zm-4.603 4.862h4.603v27.028h-4.603zm-9.041 8.675c-.708-3.399-3.14-5.382-6.928-5.382-6.657 0-8.722 5.063-8.722 10.564 0 4.957 2.336 9.878 8.179 9.878 4.438 0 7.093-2.514 7.684-6.586h4.709c-1.027 6.586-5.3 10.505-12.334 10.505-8.569 0-13.113-5.76-13.113-13.797 0-8.109 4.332-14.494 13.207-14.494 6.338 0 11.437 2.88 12.086 9.312zm-35.797-8.675h4.343v5.7h.106c2.22-4.342 5.3-6.49 10.28-6.325v4.697c-7.411 0-10.114 4.084-10.114 10.93v12.026h-4.615zm-4.143 18.448c-1.24 5.96-5.677 9.206-11.956 9.206-8.935 0-13.16-5.96-13.432-14.222 0-8.097 5.524-14.057 13.16-14.057 9.903 0 12.936 8.934 12.664 15.473h-20.949c-.165 4.697 2.596 8.887 8.71 8.887 3.789 0 6.445-1.782 7.259-5.287zm-4.438-7.519c-.213-4.249-3.517-7.636-8.061-7.636-4.828 0-7.684 3.505-8.014 7.636zm-64.313-10.929h4.332v3.978h.107c2.065-3.034 5.205-4.603 9.04-4.603 3.411 0 6.563 1.298 7.696 4.603 1.9-2.88 5.193-4.603 8.769-4.603 5.583 0 9.312 2.242 9.312 7.837v19.816h-4.591v-17.727c0-3.34-.932-6.008-5.417-6.008-4.45 0-7.318 2.715-7.318 6.893v16.842h-4.603v-17.727c0-3.506-1.133-6.008-5.252-6.008-5.465 0-7.471 4.863-7.471 6.893v16.842h-4.603zm-44.885 0h4.331v3.978h.107c2.054-3.034 5.193-4.603 9.04-4.603 3.412 0 6.551 1.298 7.684 4.603 1.9-2.88 5.205-4.603 8.782-4.603 5.57 0 9.312 2.242 9.312 7.837v19.816h-4.604v-17.727c0-3.34-.92-6.008-5.417-6.008-4.438 0-7.318 2.715-7.318 6.893v16.842h-4.591v-17.727c0-3.506-1.145-6.008-5.252-6.008-5.477 0-7.472 4.863-7.472 6.893v16.842h-4.602zm-17.74-.637c8.888 0 13.585 6.232 13.585 14.175 0 7.896-4.697 14.116-13.585 14.116-8.875 0-13.584-6.22-13.584-14.116 0-7.943 4.709-14.175 13.584-14.175m0 24.372c4.828 0 8.723-3.658 8.723-10.197 0-6.586-3.895-10.245-8.723-10.245-4.815 0-8.722 3.659-8.722 10.245 0 6.539 3.907 10.197 8.722 10.197m-22.035-22.802c-1.086-5.276-5.476-7.944-10.835-7.944-9.206 0-13.101 7.318-13.101 15.108 0 8.521 3.895 15.638 13.148 15.638 6.775 0 10.67-4.603 11.166-10.775h5.134c-.968 9.3-6.976 14.953-16.725 14.953-12.027 0-17.869-8.568-17.869-19.45 0-10.823 6.385-19.652 18.294-19.652 8.073 0 14.73 4.178 15.934 12.122zm94.952-55.862h4.332v4.296h.106c1.96-3.352 5.099-4.922 9.1-4.922 7.365 0 9.643 4.084 9.643 9.89v17.775h-4.603v-18.305c0-3.293-2.172-5.441-5.69-5.441-5.57 0-8.285 3.611-8.285 8.474v15.272h-4.603zm-11.991 27.04h-4.875l-5.689-21.493h-.106l-5.63 21.492h-4.98l-8.983-27.04h5.087l6.327 22.119h.118l5.63-22.118h5.04l5.841 22.118h.107l6.279-22.118h4.768zm-44.46-27.666c8.887 0 13.584 6.232 13.584 14.163 0 7.908-4.697 14.128-13.585 14.128-8.876 0-13.585-6.22-13.585-14.128 0-7.931 4.71-14.163 13.585-14.163m0 24.36c4.827 0 8.722-3.658 8.722-10.197 0-6.574-3.895-10.233-8.722-10.233-4.815 0-8.722 3.66-8.722 10.233 0 6.539 3.907 10.198 8.722 10.198M64.1 103.145h4.344v5.712h.095c2.23-4.343 5.311-6.491 10.292-6.338v4.71c-7.412 0-10.115 4.083-10.115 10.929v12.026h-4.615zm-9.666.944c-1.086-5.276-5.476-7.943-10.835-7.943-9.206 0-13.101 7.317-13.101 15.107 0 8.522 3.895 15.639 13.148 15.639 6.775 0 10.67-4.603 11.166-10.776h5.134c-.968 9.3-6.976 14.954-16.725 14.954-12.027 0-17.869-8.58-17.869-19.451 0-10.823 6.385-19.651 18.294-19.651 8.073 0 14.73 4.178 15.934 12.12z"/>
</svg>